<?xml version="1.0" encoding="UTF-8" standalone="no"?>
<!DOCTYPE svg  PUBLIC '-//W3C//DTD SVG 1.1//EN'  'http://www.w3.org/Graphics/SVG/1.1/DTD/svg11.dtd'>
<svg xmlns="http://www.w3.org/2000/svg">
<defs>
<font id="lateron-Regular" horiz-adv-x="234">
<font-face underline-position="-140" font-weight="400" descent="-410" panose-1="2 0 0 0 0 0 0 0 0 0" units-per-em="2048" unicode-range="U+0020-F000" bbox="-22 -476 1268 1661" x-height="979" underline-thickness="48" font-family="lateron" ascent="1638" cap-height="1488"/>
<missing-glyph horiz-adv-x="2048"/>
<glyph glyph-name=".notdef" horiz-adv-x="2048"/>
<glyph glyph-name=".null" horiz-adv-x="0"/>
<glyph glyph-name="nonmarkingreturn" horiz-adv-x="2048"/>
<glyph glyph-name="space" horiz-adv-x="390" unicode=" "/>
<glyph glyph-name="exclam" horiz-adv-x="180" unicode="!" d="M48 -4q-25 9 -25 25q0 12 13 27q20 -4 36 -16q-8 -20 -24 -36zM4 1448l4 8q20 -4 24 -24v-208q1 -12 1 -26q0 -28 -5 -62v-108q4 -24 4 -50t-4 -54q-2 -26 -2 -50t2 -46q0 -28 4 -56l-4 -20q4 -24 4 -64v-24l8 -40v-28l4 -12v-32l4 -24l4 -80q-5 -26 -5 -54q0 -37 9 -78 q4 -24 4 -56l-4 -20l-24 12q2 13 2 27q0 41 -18 89l8 88l-4 124q-12 52 -12 92l-4 12l4 24l-4 100l-4 28l8 152v12q-8 28 -4 60q-1 12 -1 26q0 28 5 62v160l4 24z"/>
<glyph glyph-name="quotedbl" horiz-adv-x="290" unicode='&quot;' d="M18 1300q-21 59 -21 122q0 57 17 118q16 -4 24 -16q-11 -42 -11 -89q0 -38 7 -79q4 -20 4 -48zM162 1536l12 8q12 -4 24 -16q-12 -46 -12 -98t12 -110l-8 -16l-24 12q-7 22 -7 46q0 16 3 34q-7 29 -7 62q0 22 3 46q4 12 4 32z"/>
<glyph glyph-name="numbersign" horiz-adv-x="1360" unicode="#" d="M848 983l-20 12l-88 -4l-16 -4l-16 -4h-56l-24 -4h-48l-16 -4q-40 -8 -100 -8h-28l-28 -4l-8 -44l-4 -8v-24q-8 -24 -12 -52l-4 -24q0 -16 -8 -40l-4 -16l-16 -100v-16l-4 -8q0 -28 -12 -64v-24l-4 -24l-4 -20l-4 -48q16 -8 40 0h204l44 4l8 4h24l20 4h36l28 -4l20 4 q16 32 20 76q12 36 16 88l24 112q4 44 12 72l4 40l4 20q0 28 12 64l4 24zM940 1451l12 20h12l8 -12q-4 -28 -20 -60l-8 -32l-4 -36l-4 -16l-12 -44v-16q-8 -20 -12 -52v-16l-8 -16q0 -28 -8 -64v-12l-8 -24v-24l-8 -24q18 -3 37 -3q29 0 63 7h64l12 4q4 -4 14 -4t18 4h28 l44 8l16 -4l44 12h16q28 -12 28 -24q-36 -8 -100 -12l-16 -4h-28l-44 -8q-8 4 -20 0l-124 -4l-52 -4q-16 -36 -20 -88l-4 -28l-4 -28l-4 -24l-4 -12q-4 -20 -4 -48l-12 -44l-4 -24l-4 -24l-4 -24l-4 -20l-4 -36l-4 -16q-12 -36 -16 -88q-4 -12 0 -24l24 4l92 4q36 8 72 8 q24 4 36 8q24 0 56 8h92q8 -12 8 -32h-124l-32 -8h-24l-28 -4q-44 -4 -68 -8h-16q-28 0 -72 -8h-24l-8 -8l-4 -36l-12 -44l-4 -32l-8 -72q0 -28 -8 -52l-4 -28l-4 -36l-4 -20q-4 -28 -8 -44l4 -20q4 -8 0 -20l-16 -16q-22 14 -22 42q0 18 10 42q0 24 8 48v12l12 48v12 l16 124q12 56 16 96q-24 4 -54 4t-66 -4q-21 -5 -46 -5q-12 0 -26 1l-8 -4h-28q-20 4 -48 4h-36l-44 -4l-32 -4l-44 -12q0 -28 -12 -64q4 -24 -8 -52v-36l-4 -16l-4 -36l-4 -16v-40q-8 -28 -12 -72l-8 -20v-40l-12 -20q-24 4 -24 32q16 36 20 92l12 44q0 36 4 60v12l12 64 l4 24v16q8 28 12 68q-14 2 -30 2t-34 -2q-16 4 -34 4t-38 -4q-19 5 -44 5q-13 0 -28 -1q-20 -4 -30 -2t-14 22q29 11 63 11q27 0 57 -7q34 14 73 14q26 0 55 -6l8 4q16 48 20 120l4 24l12 52v16l4 16q0 24 8 48l4 36l8 20l4 28l4 32l4 8v24l8 24v16l8 40l-4 16h-88l-28 -4 l-12 4q-4 -4 -16 -4l-44 4l-20 4l-25 1q-23 -1 -40 -2q-39 1 -91 5q-8 12 -12 32l12 8q31 -13 66 -13q29 0 62 9h12l56 -8q32 5 76 5q22 0 48 -1l52 -4q16 36 20 84q4 12 4 32l8 24v12q8 16 14 38t10 46l8 16v20l28 136l4 20l20 12q0 -60 -24 -156l-36 -152l-4 -16l-16 -72 l-4 -20l-4 -20q14 -2 32 -2t40 2l12 -4q22 -5 46 -5q32 0 66 9l96 4q20 4 52 4l92 4q20 36 20 88l8 28l4 28q8 28 8 52l4 12q8 24 8 52l12 36l8 40l4 32l8 20l4 20z"/>
<glyph glyph-name="dollar" horiz-adv-x="771" unicode="$" d="M638 659q-48 159 -220 202l-68 -10l-14 -4l-5 -34v-134l-5 -53q2 -10 2 -22q0 -21 -6 -45l4 -29v-120q0 -15 -4 -39l-5 -216l33 -19q159 77 269 274l15 77l9 28zM288 1288l-24 5q-223 -41 -223 -184q0 -26 7 -56q31 -167 176 -167q34 0 74 9v192l-5 19v158zM288 1336v42 q0 107 12 107q8 0 22 -52v-6q-5 -9 0 -24q-2 -10 -2 -21q0 -21 6 -46q144 0 221 -101l-24 -19q-69 73 -171 73q-13 0 -26 -1v-163q5 -5 5 -19v-115l5 -29l-5 -63l10 -9q24 2 46 2q290 0 295 -353q-34 -278 -308 -432q-28 -4 -57 10q-2 -16 -2 -35q0 -37 7 -85l-34 14 q-5 24 -5 63v19q-5 10 0 24q-19 14 -48 24q-105 5 -201 96l-5 29l24 14q74 -110 213 -110h12q5 19 5 42t-5 49q7 29 7 64q0 18 -2 37l5 19v163q2 18 2 38t-2 44l10 77l-5 76l5 29l4 29l-9 14q-26 -3 -49 -3q-239 0 -244 306q53 139 288 182z"/>
<glyph glyph-name="percent" horiz-adv-x="830" unicode="%" d="M566 511q-20 7 -52 0q-24 -20 -56 -56l-8 -8q-65 -123 -65 -206q0 -131 165 -158q120 52 120 186q0 80 -44 190l-40 40zM394 391q28 100 124 150h5q61 0 115 -50q61 -113 61 -217q0 -72 -29 -139q-53 -79 -139 -79q-32 0 -69 11q-88 44 -108 156v14q0 77 40 154z M222 1415h-12q-28 -4 -47 -11q-21 -13 -37 -9q-96 -108 -96 -276q28 -80 104 -140q48 0 116 28q32 4 76 28l8 4q28 16 52 44q31 66 31 131q0 95 -67 185q-28 8 -60 8q-28 8 -68 8zM134 1431l60 20h44q48 -24 112 -24q12 -8 32 -16q55 -84 55 -189q0 -25 -3 -51 q-8 -172 -204 -196q-42 -20 -77 -20q-101 0 -151 160q0 148 84 288zM618 1419q8 24 20 40q13 -9 13 -30q0 -24 -17 -62l-84 -240l-8 -16l-4 -16l-24 -68q-4 -20 -16 -44l-12 -28l-8 -20l-12 -24l-24 -80l-12 -24l-40 -124l-4 -8l-20 -56q-4 -24 -16 -52l-4 -28l-20 -72 l-12 -28l-12 -32q-4 -20 -16 -40l-4 -16l-52 -132l-12 -28q0 -28 -16 -64v-12l-12 -40v-12q-8 -16 -4 -40l-4 -12q-12 -12 -28 -16l-4 28q8 28 12 72l16 60l4 16l40 116q8 28 20 48q4 16 16 36l56 172l4 8l12 56l16 40q8 28 16 40q4 36 24 80q8 12 8 28l12 28l20 64l12 24 v12l100 256l12 28l16 48q8 40 32 92l12 32z"/>
<glyph glyph-name="ampersand" horiz-adv-x="990" unicode="&amp;" d="M428 871l-8 8l-96 -132l-8 -8l-12 -20l-12 -24l-4 -12q-20 -24 -36 -64l-12 -24l-20 -28l-20 -32q-4 -4 -8 -16l-28 -52q-12 -24 -40 -64l-24 -52q-12 -12 -20 -36l-8 -12l-16 -44l-12 -16q-9 -27 -9 -59q0 -24 5 -49l-4 -8q20 -48 68 -80q40 -12 100 -12l8 -8l28 8 q26 -7 56 -7q20 0 40 3q20 4 48 4q32 12 84 44l20 12q24 20 48 52l20 20q8 16 24 28q8 12 24 28l32 32q20 24 48 44l16 16l12 16q8 4 16 16l-80 132q-12 28 -36 60q-8 16 -8 24l-52 88l-8 8l-8 16l-4 16l-12 20l-12 16q-12 28 -36 64q-28 44 -44 84zM628 1303 q-80 152 -272 156q-76 -20 -124 -92q8 -164 128 -328l16 -28q28 -24 48 -68q20 24 44 64l8 12l64 64l4 8l20 16q20 28 32 76l36 56l4 12q-8 24 -8 52zM204 1383q48 84 148 108q216 0 300 -156q8 -31 8 -61q0 -146 -176 -291q-12 -36 -40 -72l44 -100l40 -60q8 -16 8 -24 l16 -24l8 -8q12 -28 36 -60l52 -100q12 -16 24 -44l20 -32l8 -20q16 -16 32 -48l8 -8l12 -20q30 46 52 46q16 0 28 -26l-28 -12q-16 -12 -36 -36l60 -116q12 -12 24 -32l12 -32l36 -60l20 -28q0 -16 -12 -28l-24 20q-12 32 -40 72l-16 36l-16 20q-20 32 -32 60l-8 20l-28 44 l-152 -148l-32 -44l-16 -16q-8 -4 -16 -16l-32 -28q-28 -20 -68 -36l-24 -12l-8 -8q-32 0 -80 -8l-96 4l-12 4l-8 -4l-12 4q-24 4 -68 4l-8 4q-24 0 -56 16q-40 44 -56 112q-1 11 -1 23q0 34 9 73l8 28l28 48l8 24l16 28l44 80q12 16 24 44l20 32q4 4 8 16q12 28 36 56 q8 24 32 56l16 28q4 12 16 32q28 44 48 80l12 20l32 40l8 8l44 56q-12 28 -36 48q-8 16 -28 40l-12 20l-4 16l-8 8q-20 28 -36 68l-76 172q-5 27 -5 62q0 18 1 38z"/>
<glyph glyph-name="quotesingle" horiz-adv-x="123" unicode="&apos;" d="M162 1536l12 8q12 -4 24 -16q-12 -46 -12 -98t12 -110l-8 -16l-24 12q-7 22 -7 46q0 16 3 34q-7 29 -7 62q0 22 3 46q4 12 4 32z"/>
<glyph glyph-name="parenleft" horiz-adv-x="360" unicode="(" d="M206 1457l12 4q16 -12 24 -36q-40 -40 -72 -108l-8 -16l-32 -92v-12q-4 -4 -8 -16q-4 -4 -4 -16l-8 -16q-4 -24 -16 -56l-4 -16q-4 -28 -24 -96l-4 -36l-8 -20l-12 -64l-4 -28l-4 -32v-68l-4 -12l-4 -156l-4 -20v-112q8 -32 12 -80v-12l8 -44q0 -28 12 -60v-24l36 -132 l4 -20q4 -4 4 -16l12 -36q16 -24 32 -64l20 -36v-16q-10 -6 -20 -6l-20 6q-128 326 -128 673q0 368 144 759q16 24 28 60q16 16 28 48l4 12z"/>
<glyph glyph-name="parenright" horiz-adv-x="350" unicode=")" d="M39 -102l-12 -4q-16 12 -24 36q40 40 72 108l8 16l32 92v12q4 4 8 16q4 4 4 16l8 16q4 24 16 56l4 16q4 28 24 96l4 36l8 20l12 64l4 28l4 32v68l4 12l4 156l4 20v112q-8 32 -12 80v12l-8 44q0 28 -12 60v24l-36 132l-4 20q-4 4 -4 16l-12 36q-16 24 -32 64l-20 36v16 q10 6 20 6l20 -6q128 -326 128 -673q0 -368 -144 -759q-16 -24 -28 -60q-16 -16 -28 -48l-4 -12z"/>
<glyph glyph-name="asterisk" horiz-adv-x="565" unicode="*" d="M208 1467l12 8l20 -20q-7 -26 -7 -59q0 -21 3 -45l4 -76l4 -8q20 28 56 56l28 28q8 16 28 32q20 0 24 -20q-32 -48 -92 -88l-32 -36q33 -9 70 -9q44 0 94 13q16 0 40 4l20 -16l-8 -20q-11 1 -23 1q-25 0 -57 -5l-20 -4l-28 4l-16 -4l-12 4l-16 -8q28 -44 76 -72l4 -8 l-12 -20h-20q-20 16 -44 48l-8 8q-16 24 -52 48q-9 -34 -9 -72q0 -29 5 -60q-4 -20 -2 -42t-18 -34q-12 12 -20 36q7 22 7 45q0 15 -3 31l4 28q-4 12 0 32l-4 28q-44 -92 -69 -92q-12 0 -19 20q32 28 52 76h-112l-8 -4h-48v24l40 20q41 -13 86 -13q38 0 78 9 q-110 86 -110 118q0 10 10 14l48 -44l24 -20l28 -28q6 28 6 61t-6 71v48z"/>
<glyph glyph-name="plus" horiz-adv-x="840" unicode="+" d="M268 971l16 16q12 -8 20 -24q0 -36 8 -88q-4 -20 0 -44q-4 -4 0 -48v-16l4 -16l-4 -16v-216q24 -5 57 -5q16 0 35 1h36q4 4 28 0q16 0 38 4t46 0l84 -4l12 -4l12 4h52l12 4q8 -4 16 -16q0 -12 -8 -28l-116 4l-12 4l-80 4q-20 -4 -42 -4t-46 4h-16q-36 -8 -58 -8t-46 -4 l8 -116l4 -12v-24q4 -16 0 -48l4 -8q0 -28 8 -64l-4 -20l4 -12l-4 -12q4 -20 4 -52q0 -48 8 -72l4 -20q-4 -12 -16 -20q-20 12 -28 40l-4 144l-4 52v36q-4 8 0 16l-4 24l-4 68l-4 24l-4 76q-42 9 -100 9q-19 0 -40 -1l-28 -4l-44 4l-36 -8l-16 4l-20 12l12 28q31 -7 70 -7 q26 0 54 3h72q9 1 20 1q20 0 44 -5l8 8v88l4 28l-4 12q4 4 4 16l-4 248l-4 20l-4 20z"/>
<glyph glyph-name="comma" horiz-adv-x="177" unicode="," d="M69 67q-5 -19 -4 -32q-8 -60 -32 -103q-4 -45 -25 -76l-26 -6l-4 18q53 106 54 201q15 8 27 9z"/>
<glyph glyph-name="period" horiz-adv-x="173" unicode="." d="M0 31l20 20q16 0 36 -12q-8 -44 -23 -44q-14 0 -33 36z"/>
<glyph glyph-name="slash" horiz-adv-x="560" unicode="/" d="M428 1451l16 24q3 1 6 1q18 0 22 -21q-28 -48 -36 -120q-8 -24 -10 -42t-14 -46q-4 -20 -4 -28l-44 -136q-4 -28 -20 -68l-8 -24l-4 -16l-40 -148l-4 -8v-16l-12 -32q0 -16 -16 -60q-4 -20 -4 -28l-32 -80v-12l-24 -68l-4 -8q-4 -24 -16 -52l-4 -28q-12 -28 -20 -64 q-12 -24 -20 -68l-16 -44q-16 -20 -20 -52l-8 -16l-12 -56l-28 -56l-12 -36v-24q-12 -20 -32 -24q-8 12 -8 32l16 40q4 20 16 44q20 32 32 88l36 100l12 16q4 40 24 96l8 20l4 20l4 20l32 100l8 16l12 36l12 36q4 4 8 32q4 4 4 16l28 88v12l12 40q0 12 8 24l8 48v12l32 84 q4 28 16 68l4 16q24 56 32 92l8 20l4 16l8 24l4 28l8 20l4 20l4 16l16 80l4 8v28z"/>
<glyph glyph-name="zero" horiz-adv-x="960" unicode="0" d="M496 1417q-16 6 -44 14q-104 -12 -204 -84q-20 -20 -48 -60l-12 -24l-28 -40l-36 -88v-12q-12 -28 -12 -44l-44 -120l-4 -24l-4 -28l-8 -12q0 -28 -8 -64l4 -8l-8 -28v-28l-4 -12v-52q-4 -20 0 -36l-4 -28q4 -20 0 -36l4 -8q-4 -18 -4 -39t4 -45l-4 -12l16 -72l4 -20 l4 -16l8 -24q40 -204 248 -308q58 -29 122 -29q43 0 90 13q12 12 32 24l60 60q4 8 16 12q16 16 32 44l16 8q8 16 40 60l16 40l8 12q4 24 16 56q0 20 12 36l4 36l4 8v16q8 16 8 40q4 20 8 32l8 20v20l4 20l4 24l4 20l4 16q0 28 4 64l4 24q-1 12 -1 27q0 30 5 73l4 16 q-7 24 -7 52q0 19 3 40l-12 44l-4 16q4 24 -4 56l-36 100l-32 48l-16 12l-12 20q-24 32 -64 60l-24 24l-24 20l-48 48l-28 20q-16 0 -32 6zM380 1447q17 20 38 20q9 0 18 -4h14q112 0 202 -120q200 -152 212 -432v-96l-4 -12v-68q0 -16 -4 -40l-4 -12v-52l-4 -20l-4 -24 l-4 -28q-8 -16 -12 -40l-8 -44l-8 -24l-4 -24l-12 -64l-4 -12q-12 -28 -20 -64l-12 -28q-12 -16 -20 -40l-60 -76l-20 -20l-12 -16l-12 -8l-32 -36q-12 -12 -32 -24l-20 -20q-36 -16 -84 -20q-20 -3 -40 -3q-61 0 -124 27l-8 -4l-72 44q-16 16 -44 32q-20 16 -40 48l-16 12 q-28 32 -48 88l-8 8l-4 20q-16 24 -24 64l-16 48l-4 28l-12 32q1 9 1 19q0 29 -9 65l8 32q-4 4 -4 16q4 28 4 68q1 11 1 23q0 25 -5 57v12q9 24 9 55q0 10 -1 21l8 24l4 24q0 24 4 36t8 40v16q16 36 28 92l4 12q4 4 8 16l56 160q24 32 52 84q20 20 28 44l8 4l24 16l20 16 l8 4q12 12 36 20q16 12 48 24z"/>
<glyph glyph-name="one" horiz-adv-x="524" unicode="1" d="M152 1443q4 8 16 16q24 -4 20 -28q-12 -40 -12 -88q0 -29 4 -60l-4 -144l-4 -8l-8 -164l8 -28l4 -32v-112l4 -20q-4 -24 -4 -64v-124q1 -11 1 -22q0 -22 -5 -46l4 -12v-20l4 -16l4 -16l-4 -80l4 -8v-80l4 -24v-48l4 -8l-4 -12v-100l4 -24l4 -24q59 -18 127 -18 q50 0 105 10q12 -8 12 -24q-4 -4 -16 -12q-11 -1 -22 -1q-23 0 -50 5l-8 -4h-28q-13 -1 -25 -1q-23 0 -39 5l-44 4l-12 4q-20 -4 -44 0l-88 -16l-20 -4l-24 8q0 16 12 32q20 -4 41 -4q43 0 91 16l-4 144l4 32q-5 27 -5 62q0 18 1 38l-4 16l4 12l-4 16v44l4 20l-4 52l-4 28 v156l-4 12q4 20 0 44q4 12 4 32l4 12l-8 80q1 14 1 27q0 38 -9 65q4 12 0 32q4 28 4 72l4 16v40l4 16q-4 12 0 32l-4 12q5 19 5 43q0 12 -1 25l4 20v84l-4 40l-92 -176q-4 -20 -16 -40q-4 -20 -16 -44l-20 -4l-8 16q28 40 44 100q12 16 16 40q12 16 20 40q12 16 20 40l20 24 q12 20 16 28l12 28z"/>
<glyph glyph-name="two" horiz-adv-x="770" unicode="2" d="M196 1375q72 68 184 88h36q224 -4 256 -240l-12 -68l-12 -36q0 -12 -12 -32l-4 -12l-60 -96l-8 -8l-12 -36l-16 -24l-20 -44q-8 -20 -16 -28l-36 -64l-60 -100q-16 -24 -32 -64q-12 -20 -24 -50t-36 -66l-40 -72l-4 -12q-24 -32 -40 -84l-12 -20l-12 -12l-8 -20 q-24 -44 -48 -76l-24 -40q-8 -28 -32 -64l-28 -52q28 -4 60 4q12 -4 32 -4q20 8 44 8l12 4h108q20 -8 48 0l8 -4q30 9 67 9q12 0 25 -1l16 4l72 -4q11 -1 23 -1q24 0 53 5l16 -12q0 -20 -20 -28q-24 4 -64 4l-52 4l-24 -4l-12 4l-28 -4q-16 0 -40 -4l-92 -4l-24 8 q-36 -8 -88 -8h-20q-21 -5 -44 -5q-12 0 -24 1q-28 -12 -72 -12q-20 -8 -28 -8q-12 12 -16 32l60 76q16 24 32 60l56 96l8 8l144 272l8 12q8 24 24 48l12 32q12 16 28 48l64 108q8 20 24 40q8 20 8 28l12 8l8 20l12 20l32 68q12 28 36 56l4 8q8 16 28 40q4 20 16 44l12 24 l8 64l4 8v40q-32 116 -160 172q-33 7 -64 7q-106 0 -196 -83l-16 -48l-8 -16q-4 -24 -20 -52v-12l-8 -16l-20 -68l-12 -24l-4 -16q-8 -24 -12 -56l-4 -20l8 -32l-8 -12q-20 -4 -40 12q4 20 16 44q-1 7 -1 13q0 33 17 67q0 16 12 40l28 96l20 40q4 32 28 84z"/>
<glyph glyph-name="three" horiz-adv-x="950" unicode="3" d="M148 1297q44 164 264 176q336 -23 336 -328q0 -66 -16 -144l-32 -64q-4 -12 -18 -30t-38 -30l-28 -20q24 -8 56 -12l12 -4q148 -104 160 -296q1 -11 1 -22q0 -23 -5 -50l4 -12l-8 -32l-4 -8l-4 -32q-4 -240 -252 -332q-76 -65 -172 -65q-35 0 -72 9q-196 20 -300 204 l-32 8v7q0 25 20 25q8 0 20 -4q68 -136 216 -192q61 -29 122 -29l182 65q116 32 192 148q48 84 48 196q15 54 15 105q0 160 -155 279q-28 7 -59 7q-39 0 -81 -11q-52 -4 -84 -4l-16 12l8 28q19 -3 38 -3q71 0 134 47q96 44 100 160q16 53 16 102q0 139 -124 254 q-62 29 -132 29q-16 0 -32 -1q-23 4 -44 4q-105 0 -192 -96l-16 -48z"/>
<glyph glyph-name="four" horiz-adv-x="698" unicode="4" d="M436 1367q0 28 -8 52q-16 -36 -48 -80l-4 -12l-12 -20l-8 -8l-48 -104q-36 -68 -68 -112l-12 -24q-12 -20 -16 -32l-24 -40q-24 -52 -48 -84q-12 -24 -48 -76q-12 -36 -44 -76q11 -1 24 -1q49 0 116 13h44q24 -4 56 0h20q27 9 59 9q24 0 49 -5l20 8q7 26 7 60q0 22 -3 48 l4 12q-4 24 -2 56t6 124q0 24 -8 48v100l4 44q1 15 1 29q0 41 -9 71zM412 1455q20 4 36 16h12l12 -20q-7 -30 -7 -63q0 -41 11 -85l-4 -28l-4 -32l8 -240q-5 -19 -5 -43q0 -12 1 -25v-156h72l44 12l12 -12l-12 -24q-27 -5 -59 -5q-16 0 -33 1l-28 -8v-188q4 -28 0 -60l4 -8 l-4 -80q-8 -24 -4 -56l-4 -8v-20l-4 -16v-96q-4 -16 -4 -34t4 -38l-4 -8v-64l4 -44l-4 -20q-12 -8 -32 -8l-12 16l8 48q-1 12 -1 26q0 28 5 62v124q0 28 8 64l4 28v40q5 19 5 44q0 13 -1 28l4 8q-4 12 0 32q-4 22 -4 45t4 47l-4 44v84l-20 8l-104 -4l-8 -4q-24 4 -56 -4h-24 q-10 1 -21 1q-32 0 -71 -9q-20 0 -28 4q-28 -4 -64 -16h-28l-12 28l56 68l24 56l16 24l12 20q28 36 36 60l100 172l8 20q8 4 12 16l24 36q16 24 28 60l4 12l48 84q4 4 8 16q4 4 8 16q24 24 28 56z"/>
<glyph glyph-name="five" horiz-adv-x="838" unicode="5" d="M708 1443l16 8q27 -5 27 -20q0 -10 -11 -24q-24 9 -57 9q-11 0 -23 -1l-28 -8l-32 -4h-88q-22 -4 -47 -4t-53 4h-32l-8 4h-84q-24 -36 -28 -84q-12 -20 -24 -52l-12 -32l-12 -44l-8 -12q-12 -28 -20 -68q-8 -24 -24 -52l-8 -28l-12 -24q-20 -36 -32 -92q-4 -16 -8 -24 l-12 -44l60 12l24 4h12q72 23 138 23q178 0 306 -167q77 -120 77 -264q0 -140 -73 -304q-142 -174 -359 -174q-52 0 -109 10q-24 28 -64 40l-12 16q-32 36 -84 60q-1 5 -1 11q0 12 5 25q40 -16 88 -60q20 -20 56 -40l8 -8l32 -20q37 -6 73 -6q184 0 331 154q20 32 36 88 l12 28l4 32l12 36l-4 12q19 62 19 121q0 137 -103 259q-126 119 -274 119q-111 0 -234 -67l-28 12q12 24 16 56l8 8v12l20 64l12 44q8 20 28 48q0 16 12 36l12 20q8 20 8 28q12 24 20 64l36 84l4 28l4 8l12 12v12q12 56 28 96l4 12l32 8l12 -8l92 -4l12 -4l12 4q20 -4 28 0 l8 -4h24q24 4 51 4t57 -4q24 8 52 8q28 8 44 8h24z"/>
<glyph glyph-name="six" horiz-adv-x="840" unicode="6" d="M394 847l-8 4q-148 -28 -272 -144q-24 -48 -36 -100l-16 -28l-16 -100v-16l-8 -24q0 -20 -4 -32q4 -16 -4 -36l4 -8q-4 -4 -4 -16q-4 -44 -4 -76q7 -237 187 -237q14 0 29 1q42 -8 84 -8q92 0 188 36q148 128 192 360q-4 176 -104 352q-28 24 -64 44l-16 16l-12 8 q-31 7 -67 7q-23 0 -49 -3zM394 1469q8 2 16 10q32 -8 28 -40l-44 -24l-24 -32q-8 -12 -28 -32l-32 -44l-12 -12l-20 -32l-12 -16l-36 -60l-12 -12q-8 -48 -44 -104l-8 -16q-4 -24 -16 -56q0 -16 -12 -36l-4 -16q-8 -28 -12 -64q-4 -20 -8 -28q-12 -32 -20 -88 q-4 -20 -6 -28t-6 -16q156 156 396 156h24q32 -16 64 -44l32 -12q132 -166 132 -401v-27q-12 -28 -20 -72q-4 -16 -16 -36l-4 -8q-4 -28 -24 -72l-12 -24q-12 -16 -12 -24l-48 -68q-16 -16 -48 -40l-20 -20q-16 0 -60 -16l-28 -12l-36 -4l-12 -4h-72l-28 4h-52q-16 0 -40 4 l-12 -4l-52 8h-16l-36 28q-48 52 -72 132l-12 20q-2 14 -2 29t2 31q-6 20 -6 42t6 46q-1 8 -1 17q0 18 5 39q4 16 4 40l4 24l-4 7q8 29 0 61q4 24 16 52l1 5l3 27l4 20l28 136q4 24 16 52q0 24 16 56v20q4 28 20 68l4 28l12 44q16 24 28 64l20 44l4 28q16 16 28 44l36 48 q8 20 28 40l4 12l12 12l12 24q24 20 40 52l12 12q20 20 36 52q0 4 8 6z"/>
<glyph glyph-name="seven" horiz-adv-x="910" unicode="7" d="M92 1451l92 7l95 2l17 -1h24l12 -4h48l16 -4q24 4 56 4l52 4l40 -4l20 4l76 -4q18 -4 40 -4t48 4l60 8l32 -12l-8 -24q-40 -24 -72 -72q-4 -4 -12 -16l-88 -128l-16 -20l-44 -80q-16 -20 -36 -56l-16 -28l-4 -12l-52 -104q-8 -32 -32 -76l-4 -16l-12 -16q-8 -24 -28 -60 l-8 -20q-20 -32 -44 -88l-16 -28l-196 -472l-16 -28q-8 -20 -8 -28q-24 -44 -28 -80q-4 -1 -8 -1q-9 0 -20 5l-8 24q16 24 28 60l20 44q4 16 16 40l12 32q12 20 12 28l20 40l4 20q16 24 32 64l12 28l12 32l4 12q16 28 28 64l4 12q16 24 44 84q-4 4 0 12q4 16 16 36l24 40 q4 12 16 32l20 44l8 12l24 60q16 24 32 64l48 116l8 8l12 28l12 24q12 12 20 32l40 64l4 12l16 24q12 12 16 24q24 24 44 64q8 12 24 28l20 24l28 56l8 12l16 16l-64 4l-12 -4l-16 4h-28l-20 8l-76 -4l-12 -4l-8 4l-8 -4l-28 4h-20l-24 -4l-20 4l-64 -4l-48 4q-20 -4 -44 4 q-68 0 -120 -7l-64 -5l-28 -4q-28 -4 -40 0v32z"/>
<glyph glyph-name="eight" horiz-adv-x="860" unicode="8" d="M352 735l-64 4q-24 -8 -52 -8l-24 -16l-68 -68l-4 -8q-100 -85 -100 -229v-11q-8 -34 -8 -69q0 -76 36 -155q57 -142 209 -142q19 0 39 2q28 -4 55 -4q153 0 289 116q71 103 71 242q0 72 -19 154q-24 60 -76 96q-12 16 -32 32l-28 28q-72 32 -160 32h-20zM468 1407h-52 q-32 -8 -68 -28q-168 -28 -196 -208q-15 -41 -15 -85q0 -50 19 -103q24 -128 144 -208l72 4q26 -5 51 -5q160 0 229 229q2 26 2 50q0 214 -186 354zM148 1283q100 128 288 164q28 0 64 -12q148 -112 176 -316q8 -39 8 -76q0 -166 -164 -284q244 -98 244 -379v-9l-8 -36v-12 q0 -102 -64 -196q-120 -104 -292 -128h-64l-8 4q-33 -5 -62 -5q-212 0 -258 253q-8 32 -8 68t8 76q0 236 232 376q-134 134 -134 307q0 96 42 205z"/>
<glyph glyph-name="nine" horiz-adv-x="790" unicode="9" d="M640 1096q-12 340 -340 344q-188 -56 -264 -260l-4 -92l4 -44v-36q5 -19 5 -43q0 -12 -1 -25q0 -8 8 -12l-4 -36q20 -176 200 -240q66 -28 132 -28q87 0 176 48l36 28l12 12q16 32 20 76l16 52v12l16 72v12l8 68q-8 28 -8 64zM16 892q-19 92 -19 170q0 320 315 410h17 q234 0 307 -216q50 -116 50 -242q0 -104 -34 -214q0 -48 -24 -100q-8 -68 -52 -136l-4 -8l-28 -76l-16 -28l-12 -20v-12l-20 -32q-4 -4 -16 -28l-8 -8q-4 -16 -16 -36l-4 -8q-16 -16 -24 -40l-8 -16l-56 -60l-16 -20l-4 -8l-100 -96q-28 -20 -72 -36l-28 -12l-12 -8h-24 q-20 -8 -48 -8l-8 -4h-40l-8 8q0 16 12 24h14q66 0 138 32l8 -4q264 204 400 580q-88 -46 -185 -46q-79 0 -163 30q-192 56 -212 268z"/>
<glyph glyph-name="colon" horiz-adv-x="160" unicode=":" d="M0 736l20 20q16 0 36 -12q-8 -44 -23 -44q-14 0 -33 36zM0 36l20 20q16 0 36 -12q-8 -44 -23 -44q-14 0 -33 36z"/>
<glyph glyph-name="semicolon" horiz-adv-x="160" unicode=";" d="M0 731l20 20q16 0 36 -12q-8 -44 -23 -44q-14 0 -33 36zM69 67q-5 -19 -4 -32q-8 -60 -32 -103q-4 -45 -25 -76l-26 -6l-4 18q53 106 54 201q15 8 27 9z"/>
<glyph glyph-name="less" horiz-adv-x="557" unicode="&lt;" d="M360 83q13 -22 13 -41q0 -16 -9 -31l-24 12q-4 24 -16 52q-20 20 -36 56q-24 28 -36 48l-20 20l-36 48q-8 4 -12 16q-24 20 -52 56l-32 44l-12 16q-24 24 -52 68l-12 20l-20 16l-16 24q16 20 44 40l112 128l20 28q16 16 32 40l8 8l28 44l4 8l60 76l12 16l12 16 q12 24 32 48l16 36q5 16 15 16q7 0 17 -8v-36q-12 -20 -32 -40l-32 -52q-12 -8 -24 -28l-20 -28q-16 -16 -32 -44q-16 -20 -20 -28l-8 -16l-28 -36l-80 -88q-16 -24 -44 -52l-16 -20l-24 -24l48 -80q16 -12 28 -36l16 -16l8 -12q4 -4 8 -16q20 -16 56 -60l16 -20 q12 -12 32 -40l100 -140z"/>
<glyph glyph-name="equal" horiz-adv-x="820" unicode="=" d="M674 367l12 4q20 0 32 -20q-28 -24 -104 -24q-11 1 -23 1q-24 0 -53 -5q-24 4 -40 0l-12 4h-80q-12 -1 -26 -1q-28 0 -62 5l-56 -8h-132l-8 4l-8 -4q-11 1 -23 1q-24 0 -53 -5l-28 -4l-8 28l8 8q9 -1 20 -1q20 0 44 5h104l12 4q4 -4 16 -4h76l44 4h16l16 -4l152 -4l28 4 l36 4l8 -4q12 4 32 4l28 4l12 4h20zM26 523q-12 8 -12 20q0 7 4 16q32 -8 148 -12q20 4 48 4l72 -4q4 4 16 0l44 4l64 -4l8 4l36 -4q14 -2 31 -2t37 2q14 -2 30 -2t34 2h64l20 4q22 -2 22 -13q0 -7 -10 -19l-28 4q-12 -4 -32 -4h-116q-10 -2 -23 -2t-29 2q-5 -1 -12 -1 q-12 0 -28 5h-112q-14 -2 -30 -2t-34 2h-44l-24 -4h-72l-28 4h-44z"/>
<glyph glyph-name="greater" horiz-adv-x="566" unicode="&gt;" d="M40 927q-13 22 -13 41q0 16 9 31l24 -12l4 -24q16 -36 48 -80l12 -20l8 -8l16 -24q12 -8 24 -28l40 -48l20 -24l28 -28l16 -20l40 -56l12 -16q20 -20 36 -52l20 -24l20 -16l8 -16q-16 -20 -44 -40l-112 -128l-20 -28q-16 -16 -32 -40l-8 -8l-28 -44l-4 -8l-60 -76 l-12 -16l-12 -16q-12 -24 -32 -48l-16 -36q-5 -16 -15 -16q-7 0 -17 8v36q12 20 32 40l32 52q12 8 24 28l20 28q16 16 32 44q16 20 20 28l8 16l28 36l80 88q16 24 44 52l16 20l24 24l-48 80q-16 12 -28 36l-16 16l-8 12q-4 4 -8 16q-20 16 -56 60l-16 20q-12 12 -32 40 l-100 140z"/>
<glyph glyph-name="question" horiz-adv-x="530" unicode="?" d="M140 9q0 20 12 36q16 0 28 -16q-3 -27 -20 -27q-8 0 -20 7zM0 1277q52 132 232 160l64 -12l8 -4l60 -44l8 -8q63 -109 63 -219q0 -197 -203 -397l-44 -84l-8 -8q0 -16 -12 -36q-8 -28 -8 -60v-68l-4 -16v-88l-4 -20q4 -24 0 -56q-8 -12 -24 -12l-12 16l4 24v48l4 8v40 l4 16q-6 36 -6 71q0 185 162 333q12 24 36 56l12 16l36 76l4 12q35 75 35 144q0 117 -103 212q-34 21 -71 21q-40 0 -81 -25q-92 -16 -124 -112q-20 -8 -28 16z"/>
<glyph glyph-name="at" horiz-adv-x="1270" unicode="@" d="M760 1130q-77 92 -205 92h-11l-104 -32l-20 -12q-96 -84 -140 -220l-12 -20q1 -11 1 -23q0 -24 -5 -53v-12q-12 -40 -12 -85q0 -27 4 -55l-4 -12q4 -24 4 -56l4 -48l4 -24q-4 -16 4 -40q12 -116 92 -224q36 -12 92 -16q33 -10 64 -10q87 0 164 74l68 80l32 80v12l12 28 v12l8 12q0 28 12 64l4 24l12 32q4 36 12 60l4 44l16 52q0 32 -8 80v12l-16 48v12q0 24 -12 56q-12 20 -24 28q-12 24 -40 40zM164 1250q152 232 456 292l44 -4l28 -4l20 -8q132 -4 232 -112q152 -112 184 -316q39 -133 39 -267q0 -234 -119 -473q-52 -56 -140 -88 q-18 -3 -33 -3q-107 0 -107 147q-91 -165 -274 -165q-65 0 -142 21q-12 12 -32 24l-28 44l-36 92l-8 8v24q-12 28 -12 72l-4 28q-4 4 -4 28l-4 12v80l-4 44v28q4 48 8 80v12l8 28l4 28q0 20 4 48l8 16l12 56q24 28 44 72l48 64l8 8l8 16l40 28q78 40 157 40q71 0 143 -32 l16 4q16 -28 48 -56q24 -20 52 -56l16 -16q24 -40 24 -100q8 -28 12 -64q4 -12 4 -32l4 -24q-4 -40 -20 -100l-4 -24l-4 -20l-4 -16l-4 -20q-4 -24 -8 -52l-8 -16q-5 -19 -5 -52q0 -16 1 -36q-20 -36 -20 -88l-4 -8q-3 -15 -3 -29q0 -53 35 -103q11 -1 22 -1q66 0 134 41 q134 198 134 455q0 34 -2 69q4 26 4 57t-4 67q-8 28 -28 68q0 24 -12 48v16l-8 20v12l-8 16q-8 48 -40 96v12q-179 222 -380 222q-137 0 -284 -102q-16 -4 -36 -20l-28 -12q-208 -180 -232 -480q-12 -36 -20 -88l-4 -28l-4 -12v-24l-4 -12l4 -12q-9 -47 -9 -95 q0 -96 37 -197q4 -84 52 -180q16 -28 48 -52q96 -132 280 -152q53 -17 123 -17q14 0 29 1l12 -4l28 4l8 4l12 -4l24 16l8 -4q16 16 40 16q8 8 24 16l8 8l24 16q20 12 32 24l12 4l16 16l8 4l24 28l24 20l8 8h16q5 -7 5 -15q0 -28 -53 -65q-139 -128 -316 -128q-89 0 -188 32 q-296 68 -344 404q-16 24 -12 56l-12 28l-4 8q0 24 -8 52q4 20 4 42t-4 46q8 20 8 44l4 16l-4 32q12 40 20 100l12 52l8 28q0 168 116 320z"/>
<glyph glyph-name="A" horiz-adv-x="800" unicode="A" d="M404 1288q0 48 -24 96l-16 -80l-4 -12q0 -20 -8 -44q-28 -52 -36 -128l-4 -8l-16 -52v-12q-16 -36 -24 -92q-4 -4 -4 -32l-28 -100l-4 -28l-4 -12l-28 -180l-12 -24q19 -5 44 -5q13 0 28 1l12 -4q12 4 32 4q4 -4 28 0h60l16 -4l12 4h32l40 8q36 0 60 4q0 40 -20 88l-8 40 l-4 28l-4 20q-8 28 -8 56q-12 36 -16 64l-16 64q-12 24 -12 56l-28 124l-8 12l4 12l-20 48q-9 24 -9 55q0 10 1 21zM372 1436l20 12q20 0 20 -20q-2 -15 -2 -30q0 -39 14 -82v-15q0 -75 36 -169l4 -8q0 -16 8 -40q0 -20 8 -44l12 -44v-24q4 -4 8 -28l12 -32q4 -28 16 -64 l4 -24v-12q4 -4 4 -28q8 -16 4 -40l44 -152l8 -16q0 -28 12 -64v-12q12 -36 12 -52q4 -36 8 -52l12 -40l4 -20l12 -32q4 -32 12 -56q20 -84 28 -144l4 -32l12 -68l-12 -4l-20 12q0 52 -12 124q-8 56 -24 104l-8 44v12l-8 12l-12 48v16l-8 12q0 36 -16 80l-4 32l-8 52l-16 -4 q-28 15 -59 15q-27 0 -57 -11h-60q-20 2 -45 2t-55 -2h-28l-12 4q-20 -4 -28 -2t-20 -2l-12 8l-40 -140l-8 -16l-4 -20q-8 -20 -8 -28q-20 -44 -32 -76l-16 -44l-20 -92l-12 -44l-12 -64q-8 -28 -24 -32l-8 12q12 32 20 88q8 20 12 48q12 32 16 76q12 20 12 28q4 16 16 40 l16 48l8 8l8 20l4 16l12 36q8 24 12 56l16 48q8 40 36 92l4 44q8 20 8 48q0 20 4 28t8 32l4 28v12l8 16q0 24 12 52q0 24 12 56v16q0 36 20 80l4 24l4 20q12 24 20 60l4 36l16 48l12 24l12 44q0 28 12 60v12l16 56z"/>
<glyph glyph-name="B" horiz-adv-x="658" unicode="B" d="M196 1444q-20 -4 -44 0q-36 -12 -84 -12l-32 -8q0 -28 8 -72v-60l-4 -12q4 -24 0 -56q8 -28 8 -68q-4 -28 -2 -38t-2 -18q-4 -24 0 -56v-44l4 -36l4 -12q-4 -4 -6 -14t-2 -22l-4 -72l-4 -12l4 -80l4 -12l-4 -44q19 -4 39 -4q40 0 85 16l28 -4q36 24 92 36l8 4 q20 20 40 52q16 24 48 52l8 12q114 114 114 276q0 37 -6 76q-44 120 -156 212q-24 8 -60 12q-24 4 -68 4zM128 1464l32 4l128 -8l16 -4l12 4q209 -123 209 -332q0 -83 -33 -180q-12 -12 -24 -36l-28 -28l-20 -28l-52 -52l-12 -12q-16 -28 -44 -60q132 -56 196 -204 q56 -85 56 -191q0 -39 -8 -81l-24 -88q-96 -112 -252 -140q-44 -25 -98 -25q-24 0 -50 5q-17 -5 -36 -5q-26 0 -56 9l-28 -12q0 20 16 32q28 0 60 -8q20 8 52 8q20 0 52 -8h20q325 64 325 297q0 28 -5 59q-28 168 -172 300q-24 4 -48 20h-12l-28 16q-28 -16 -68 -20 q-40 -16 -68 -20l-24 -4l-8 4l-32 -8h-12q-28 -25 -28 -69v-11q0 -44 16 -108v-56l-8 -24l-4 -48q7 -34 7 -76q0 -28 -3 -60v-88l-8 -48v-24l-12 -28l-20 8q0 32 16 72v72l4 12l-4 172l8 68v36q-12 32 -12 88v28l4 16q0 32 4 80v64q-4 24 -4 68v24q4 56 12 92v12q1 6 1 14 q0 22 -9 50v56l4 44q0 24 2 40t-2 60q-4 20 -4 48l-4 8v24q8 28 8 64q-12 32 -12 80l4 28q28 -4 60 4h44z"/>
<glyph glyph-name="C" horiz-adv-x="700" unicode="C" d="M116 1306q76 112 220 144q18 2 34 2q136 0 186 -118q48 -64 48 -148l-20 -8q-16 36 -24 92q-12 20 -28 60q-8 16 -8 24q-20 16 -52 28l-12 16l-32 20q-21 2 -41 2q-232 0 -287 -262q-13 -32 -13 -77q0 -11 1 -23q-16 -32 -24 -88v-16l-4 -16q0 -28 -8 -64q0 -28 -4 -40 l-16 -272l-4 -12l4 -96l4 -44l16 -80l4 -12v-28l12 -56l8 -16l4 -20l28 -44l12 -16l4 -8l32 -36q101 -69 216 -69q31 0 64 5q64 28 104 96l28 28q28 12 36 -8q-12 -16 -36 -32q-36 -64 -108 -108q-45 -11 -91 -11q-122 0 -241 79l-64 88q-4 20 -16 44l-8 16l-8 36 q-4 24 -4 56q-8 20 -12 40l-4 16v32q-4 24 -8 36l-4 144l4 12q4 24 4 84l4 20q-4 24 2 54t6 70l4 16l4 16q-4 8 0 16q0 32 4 80l12 48q0 28 16 60v12v15q0 61 28 129l4 8l8 52q8 12 16 32z"/>
<glyph glyph-name="D" horiz-adv-x="740" unicode="D" d="M424 1384q-88 72 -216 96q-29 -7 -66 -7q-25 0 -54 3q-24 4 -56 -4l4 -168l4 -20v-64q-4 -16 -4 -60q8 -32 12 -76l-4 -68q0 -16 4 -40l4 -176q4 -12 0 -32l8 -28v-28q-3 -11 -3 -24q0 -19 7 -40l4 -68l4 -28q-8 -34 -8 -71t8 -77v-64l-4 -16q-5 -19 -5 -43q0 -12 1 -25 l4 -96l-8 -28l12 -72l4 -12l-4 -12q18 -4 36 -4q43 0 88 20q192 12 332 176l48 100l20 100l4 36l4 24l4 36q4 44 8 68q0 36 8 60q-11 29 -11 64q0 17 3 36l-4 32l-4 12v24l-4 12l4 12l-12 44l-4 32q1 6 1 14q0 22 -9 50v32l-4 12v32l-4 12v20l-52 124l-8 12v12 q-12 24 -36 56l-4 8l-20 32q-12 20 -20 28zM0 1476q0 12 8 28q28 0 64 -8l52 4l12 -4l16 4q20 -4 44 0h44l20 -4l48 -12l16 -4q32 -24 76 -44q8 -12 28 -24l8 -8l52 -72l8 -8l8 -20q20 -28 36 -64q8 -16 16 -42t28 -58l12 -32q0 -24 8 -48v-24l4 -12l16 -140l4 -28l4 -16 v-48q8 -28 8 -72l4 -28l-4 -8q4 -16 6 -40v-10q0 -19 -6 -38l4 -16q-8 -28 -8 -44t-4 -44l-16 -100l-4 -32l-4 -16q-12 -24 -20 -60l-48 -80l-4 -12q-176 -176 -452 -180l-40 -12l8 32q-12 12 -10 30t-2 42v16q0 24 4 56l-4 120l8 56q0 28 -4 40q0 24 -8 56l8 68q4 32 4 80 q-8 28 -12 72l-4 20l4 44v32l-4 44l-4 28l-4 20v64l4 8l-4 12q4 8 0 16v16q-4 24 -4 52t4 60v12q0 24 -8 48l-4 20v12q0 20 4 48l-4 12q5 19 5 43q0 12 -1 25l-4 96q1 7 1 15q0 29 -13 61z"/>
<glyph glyph-name="E" horiz-adv-x="730" unicode="E" d="M420 1456q26 -5 53 -5q36 0 75 9q37 -10 37 -18t-33 -14q-22 -2 -49 -2t-59 2q-28 0 -72 -8h-44q-24 -8 -56 -8l-16 -4q-20 4 -48 4l-20 -4l-48 8h-12q-28 8 -60 4l-8 4l-28 -12v-72l4 -28l-4 -16v-36q4 -16 4 -40q4 -28 4 -51t-4 -41v-16l4 -36q4 -12 0 -28l4 -100 l8 -28q0 -16 4 -40l-4 -12q4 -4 0 -16l4 -20l-4 -36l4 -16q28 -8 60 -4h68l20 -4h48l44 4l20 -8q0 -12 -8 -24q-12 0 -24 8q-19 -5 -43 -5q-12 0 -25 1q-20 0 -44 8q-16 -4 -44 -4q-14 -4 -30 -4t-34 4l-8 -8l4 -120q4 -24 4 -56l-4 -148q2 -14 2 -30t-2 -34q-12 -24 -8 -56 l4 -100q-1 -8 -1 -17q0 -26 9 -59l-4 -28v-60h216q20 4 44 0q14 2 32 2t40 -2q8 -4 16 0l28 -4h36l24 -4l24 4q44 20 96 20q18 -3 18 -17q0 -5 -2 -11q-40 0 -96 -16h-32l-12 -4l-192 8l-8 4q-20 -8 -24 -8l-80 4l-44 -4l-52 4q-24 0 -48 -12l-20 8l12 20l-4 128l-4 24 q2 16 2 36t-2 44q-4 20 -2 46t14 62l-4 24v64q0 16 4 40v116q-4 20 -4 52l-4 12v88l-4 28l-8 200l-4 40q2 14 2 32t-2 40v128l-4 28q-4 4 0 16l-4 8q4 26 4 53q0 46 -12 99q4 4 8 16q36 0 92 -12l8 4q28 0 64 -8l16 -4l92 4l48 12l60 -4l24 8z"/>
<glyph glyph-name="F" horiz-adv-x="630" unicode="F" d="M464 1464l16 4q12 3 22 3q27 0 42 -23q-48 -13 -119 -13q-18 0 -37 1q-20 -4 -48 -4l-16 -4q-20 4 -48 4q-36 4 -62 6t-58 -6q-24 -4 -56 0l-12 -4h-28l-28 -8l-4 -24q5 -21 5 -44q0 -12 -1 -24v-12q4 -4 8 -28v-40q8 -20 6 -44t-2 -56q-4 -24 -4 -54t4 -66l4 -128l4 -12 q-1 -8 -1 -17q0 -27 9 -63l4 -20l4 -24v-16l8 -12q16 2 38 2t50 -2l28 4l20 -4h80l16 -4h48v-20q-12 -4 -36 -8l-8 8h-152l-8 -4q-24 4 -56 0l-20 -12q7 -29 7 -66q0 -25 -3 -54v-44q11 -35 11 -75q0 -20 -3 -41l4 -16v-56q-1 -8 -1 -16q0 -25 9 -52v-80l4 -52 q-1 -20 -1 -39q0 -37 5 -69l-4 -32l-12 -4l-20 16q4 16 4 34t-4 38l4 8v32l4 12l-8 12v12q0 20 8 44l-12 160q-4 20 0 32v40l-4 20l-4 20l-4 88l4 24v60q-12 40 -16 100l-4 16v28l-8 12l4 24l-4 12v28q-8 24 -8 56l-8 196q4 4 4 30t4 70l-8 64l-4 8v24l4 28l-8 44l-4 32 l-4 20q32 11 68 11q18 0 36 -3q20 8 48 0q28 8 58 8t62 -8q28 8 60 0l32 4q27 9 70 9q14 0 30 -1z"/>
<glyph glyph-name="G" horiz-adv-x="720" unicode="G" d="M164 1396q40 28 100 40q5 1 12 1q12 0 28 -5q14 2 28 2q43 0 88 -18l16 4l24 -12h12q12 -12 28 -36l-8 -16h-20q-25 36 -74 36h-10q-32 16 -82 18h-8q-47 0 -98 -22q-36 -44 -60 -108l-32 -72l-8 -12l-24 -100q-8 -24 -12 -108l-4 -24q-12 -28 -20 -68v-64l4 -8 q-12 -32 -12 -72l-4 -24l-4 -8q13 -48 13 -109q0 -15 -1 -31q4 -24 0 -44v-12q12 -48 16 -120l4 -20l4 -20l4 -44q8 -28 12 -68l8 -20v-24l4 -24l4 -24l16 -40l16 -24l8 -20q52 -44 128 -48q332 55 332 323q0 42 -8 89q-7 1 -14 1q-34 0 -74 -17q-32 0 -72 -8l-16 4 q-20 -4 -44 0q-16 -8 -40 -8l-16 24l20 12h128l24 4l40 12l8 4q9 -1 20 -1q20 0 44 5h24q3 -14 3 -30q0 -24 -7 -50q4 -12 4 -32q1 -13 1 -26q0 -147 -125 -258l-80 -32q-16 -12 -38 -16t-46 -16q-20 -4 -28 -12h-16q-72 0 -148 32q-72 80 -80 200l-16 72q-12 52 -16 96 l-4 12v52q-12 40 -12 85q0 27 4 55l-4 12q-8 24 0 52v24l-8 28q5 19 5 44q0 13 -1 28l8 28v40l4 52l24 104q-1 9 -1 18q0 45 17 98l4 24v12l16 44l12 28l8 8l16 44q8 12 28 52l12 24l4 12q4 4 8 16z"/>
<glyph glyph-name="H" horiz-adv-x="760" unicode="H" d="M0 1408l4 16q12 0 28 -8q2 -20 2 -45t-2 -55q4 -32 12 -56v-72q-1 -9 -1 -20q0 -21 5 -48v-60q-4 -20 -4 -56l-4 -40l-4 -16v-112l4 -28q-4 -4 -4 -28l4 -12l-4 -12q8 -28 4 -60l4 -24l88 -12h40l16 -4l136 4q24 -4 54 -4t66 4l8 4h60q20 4 42 4t46 -4q7 17 7 36 q0 13 -3 28q4 16 4 33t-4 35q4 16 4 36t-4 44l8 88v64l-4 8v132q4 4 0 16l4 12q0 32 4 80l4 12l-4 12l4 16v88q0 20 20 20q7 -36 7 -73q0 -47 -11 -99q1 -12 1 -26q0 -28 -5 -62l4 -220q-5 -27 -5 -46q0 -10 1 -18v-44q-1 -11 -1 -23q0 -25 5 -57l-4 -12v-72l4 -60 q4 -24 4 -56l4 -12v-40l4 -20v-84q4 -28 4 -50t-4 -38l4 -84q-5 -24 -5 -53q0 -15 1 -31v-32q-4 -4 -4 -16v-68l4 -12l-16 -16q-16 8 -20 24q4 40 4 100l4 16l-4 24l4 12v40l4 44q-6 20 -6 42t6 46l4 24q-8 36 -12 100l4 8q-4 16 -4 40l-4 32v16l-4 20v36q-32 20 -72 20 q-20 -4 -52 -4l-12 -4l-8 4l-12 -4h-36q-24 -4 -56 -4l-44 4q-12 -4 -32 -4t-28 -4q-28 8 -60 0l-24 8q-9 -1 -20 -1q-21 0 -48 5h-40q-4 4 -16 4q-5 -27 -5 -59q0 -16 1 -33l-4 -16q4 -16 4 -40l4 -24v-52q-8 -20 -12 -56l8 -56q-9 -45 -9 -81q0 -12 1 -23l-4 -12v-88 l8 -28q-8 -16 0 -36q-4 -20 -4 -28q-16 0 -32 12q4 20 4 42t-4 46l4 28l-4 12q4 4 4 28l-4 12l4 20v36q9 26 9 58q0 10 -1 22l-4 20l12 88q-4 36 -4 60q-4 18 -4 40t4 48l-4 192l-4 12q-2 20 -2 36t2 28v68q4 24 4 56l8 44v80q1 11 1 23q0 25 -5 57l4 32q0 44 -12 108v40 l4 12z"/>
<glyph glyph-name="I" horiz-adv-x="610" unicode="I" d="M380 1476l64 12h8q20 -8 20 -32l-120 -4l-28 4l-32 -4l-32 -12q11 -29 11 -64q0 -17 -3 -36l4 -32l4 -20l4 -16l4 -20l4 -68l4 -20l-4 -80q8 -28 8 -68v-20l4 -24l-4 -80q14 -37 14 -80q0 -17 -2 -36q2 -16 2 -36t-2 -44l4 -28l-4 -12q9 -32 9 -71q0 -29 -5 -61l4 -24 v-60l4 -8v-16q-9 -30 -9 -66q0 -27 5 -58v-52l-8 -20l8 -104l-4 -8q0 -16 8 -40v-16q24 -6 54 -6t66 6q24 -8 56 -4l12 4l4 -28l-12 -12q-29 7 -62 7q-22 0 -46 -3l-8 4l-8 -4l-32 4l-48 -4q-16 -4 -40 -4h-12q-28 -8 -72 -8h-80l-36 4l-12 4q4 16 20 28q27 -9 59 -9 q24 0 49 5q12 -1 26 -1q28 0 66 5q8 4 16 0l4 8q2 14 2 32t-2 40l4 28l-4 32l-4 20l8 56q1 9 1 20q0 20 -5 44v40l8 24v76l-4 8v88l4 24q-7 22 -7 48q0 17 3 36l-8 20l4 12q-4 4 -4 32l4 32l4 32q-14 43 -14 96q0 21 2 44l-4 12l4 8q0 52 -8 76l4 12q-5 19 -5 43q0 12 1 25 l-4 12q4 28 0 52l-8 108q-8 28 -12 64l4 56l-8 20l-4 20q-45 9 -110 9q-22 0 -46 -1q-16 -4 -40 0q-12 -4 -32 -4l-8 20q4 8 16 16q16 0 40 -12q39 9 89 9q17 0 35 -1q12 -4 32 -4l8 -4l100 12l16 4q28 -4 44 -8z"/>
<glyph glyph-name="J" horiz-adv-x="720" unicode="J" d="M476 1442l8 4h28q12 -4 32 -4q20 -8 44 -8l12 -4q17 -28 17 -37q0 -4 -4 -4q-7 0 -29 17q-34 10 -70 10t-74 -10l-60 -8l-8 -16q0 -28 8 -60q-8 -28 -8 -68q6 -38 6 -68v-14v-14q0 -30 6 -72q-4 -22 -4 -46t4 -50v-32l4 -24l4 -20q-4 -16 -4 -34t4 -38l-4 -28l4 -8 q-4 -24 0 -40t4 -36l4 -12v-24l4 -8l-4 -200l-4 -16l4 -16v-32l4 -16l-8 -56q-4 -12 0 -28q-12 -36 -16 -84l-8 -20v-36l-16 -44q0 -24 -8 -56q-8 -20 -28 -48l-4 -12q-52 -28 -102 -28q-83 0 -158 80l-4 24q-48 60 -52 144l8 12q12 0 20 -8v-56q20 -24 32 -56 q12 -16 24 -48q71 -69 128 -69q59 0 104 73l24 88q4 20 4 48l8 24l4 8v16l4 20l16 108l-4 128q2 20 2 45t-2 55l8 28l-4 16v44l-8 28l-4 32l-16 484q4 20 4 45t-4 55q-4 12 0 32q-27 5 -58 5q-40 0 -86 -9l-44 4q-8 8 -16 24q4 4 16 8q27 -5 59 -5q16 0 33 1l12 -4 q20 8 52 8q12 -1 26 -1q40 0 94 9h12z"/>
<glyph glyph-name="K" horiz-adv-x="660" unicode="K" d="M500 1434l8 12q28 0 28 -32q-12 -12 -20 -36l-12 -16l-8 -8l-36 -72l-8 -24l-36 -60l-12 -24l-8 -8l-16 -44l-12 -16q-8 -28 -28 -64l-56 -108l-16 -24l-12 -24q-12 -12 -24 -32l-4 -8l-12 -12l-24 -40q-12 -16 -12 -24l-16 -24l20 -12l20 -56q16 -20 32 -56 q4 -20 18 -42t34 -58l28 -48l12 -12q12 -20 32 -44l28 -48q4 -20 20 -36l8 -20q28 -32 56 -84q8 -24 28 -56q12 -20 20 -52l8 -8l16 -36q4 -24 20 -48q1 -5 1 -11q0 -11 -5 -21l-28 12l-36 104l-4 20q-28 32 -48 88l-8 16l-40 60l-8 20l-20 28q-8 24 -24 48l-36 52l-20 28 l-12 16q-12 28 -36 60l-40 80l-4 12l-40 68l-8 8q-16 -20 -24 -48q-40 -32 -60 -88l-8 -16l-16 -4q-2 -20 -2 -45t2 -55v-16l-4 -16l4 -16q-2 -14 -2 -31t2 -37v-16l8 -44l-4 -28q4 -40 4 -72q7 -26 7 -47q0 -14 -3 -25l4 -64l4 -24l-8 -24q-16 0 -28 16v136l-4 16v40 q-2 18 -2 34t2 30v40q-9 33 -9 77q0 15 1 31v116l4 12l-8 128l4 16l-4 8q4 24 4 54t-4 66v32q4 24 4 56q4 48 4 124v24l-4 44q-4 24 -4 56l4 44q-4 12 0 32l-4 24l-4 104l-4 24q0 16 16 32l16 -16q-5 -24 -5 -49q0 -34 9 -71v-168l4 -8v-164l-4 -24l4 -28q-4 -24 -4 -54 t4 -66v-24l-4 -28v-96l4 -12q12 28 44 56l20 32l20 36l4 12q16 16 24 40q12 16 24 40q28 32 64 88l24 44q12 20 16 28l12 20l12 20q8 32 36 72l4 24q12 16 24 44q4 4 8 16l44 80l16 20l4 16q12 16 16 36l12 24q4 4 10 14t10 18q8 16 12 44z"/>
<glyph glyph-name="L" horiz-adv-x="649" unicode="L" d="M9 1414q-4 36 8 52l20 -20q-8 -30 -8 -63t8 -69q-11 -35 -11 -78q0 -22 3 -46q-4 -12 0 -32v-40q-6 -22 -6 -47t6 -53v-12q4 -24 -4 -52l4 -12q2 -22 2 -41t-2 -35l4 -16l-4 -52l4 -8v-24l4 -8v-40q-4 -20 -4 -48l-4 -28q0 -12 4 -32q-5 -19 -5 -43q0 -12 1 -25v-180 l-4 -20l4 -68q4 -36 -4 -60l4 -24l4 -16v-80l4 -44l12 -16q11 -1 24 -1q26 0 60 5q12 -4 32 -4q20 4 28 0l16 4q24 2 44 2t36 -2h40q4 4 14 6t20 0t22 0t28 -2h24l64 8l32 -4l20 -12q0 -12 -12 -20q-14 4 -30 4t-34 -4h-44l-8 -4l-28 4l-16 4l-48 -8q-16 0 -40 -4 q-28 8 -60 4l-52 4l-8 -4l-8 4l-24 -8h-20l-28 4l-20 -8q-24 4 -56 0l-16 12q4 28 4 64v12q4 20 4 42t-4 46v12q-4 24 4 52l-4 12v40l-4 16q4 4 0 16q4 28 4 64v168q4 12 -4 24l8 12q-3 14 -3 31q0 24 7 53q-4 24 4 52l-4 52v44l-4 32q4 20 0 52l-4 16l4 28q-4 28 0 60 q-8 28 -4 60l-4 20l4 12v120l4 44v20l4 28l-4 44l-4 8z"/>
<glyph glyph-name="M" horiz-adv-x="1140" unicode="M" d="M-2 1452q-4 7 -4 12q0 11 16 16l24 -16l-8 -24q12 -16 16 -40l12 -28l24 -60l4 -16l4 -20l4 -12q20 -84 52 -132l4 -8l12 -40q4 -28 16 -68l4 -24l4 -12q36 -52 52 -124l40 -132l12 -28q8 -12 12 -32l20 -72v-12l36 -84q20 -60 24 -104l8 -24l8 -8l12 -40q4 -28 6 -40 t6 -28l68 -148l4 -12l4 -12q60 60 88 164q8 32 8 80l20 56q8 16 12 40l12 44l4 16l4 16l4 16q8 28 12 68q20 56 28 96l8 24q16 32 24 88l4 28l52 144l12 40l12 40q12 32 12 72l8 20l4 16l32 60l12 20l24 56l16 56q8 24 28 56v36q16 20 48 36q20 0 28 -20l-20 -20 q4 -28 0 -60q5 -16 5 -41q0 -12 -1 -27v-24q0 -16 4 -38t4 -46l4 -64l-4 -12l4 -12l-4 -80l4 -12l-4 -12l4 -76l4 -8l4 -60l4 -44l-4 -28l4 -24v-48l4 -28q4 -4 4 -28l4 -20l4 -48l-4 -8v-28l4 -36l4 -28l-4 -64q-4 -20 -8 -28v-60l-4 -16l8 -12l-4 -28q4 -20 0 -28l4 -44 l-4 -20v-56l4 -16v-36q0 -12 -8 -20q-26 26 -26 67q0 10 2 21q4 48 4 124l-4 24l4 32l-4 16q4 20 4 52l4 44q5 27 5 49q0 16 -3 29t-3 27q0 19 5 39q-4 52 -12 88l-4 32q1 12 1 25q0 27 -5 59v68l-4 12v20l-4 20l-4 104q4 40 4 100q-4 12 -4 32v12q-2 14 -2 30t2 34l-4 12 v44l-4 36q1 9 1 20q0 20 -5 44l4 20l-8 24q-4 -32 -28 -68l-16 -48l-8 -8q0 -20 -12 -40l-24 -60l-28 -44q0 -12 -6 -24t-10 -40l-8 -44v-12q-12 -24 -20 -56l-32 -96l-16 -28l-4 -16l-4 -16l-8 -44l-4 -8q0 -32 -16 -68l-12 -44l-4 -20l-8 -8v-16l-8 -36q-16 -36 -20 -88 q-12 -28 -16 -64l-8 -16v-12q-20 -56 -28 -92l-8 -16q1 -8 1 -16q0 -34 -13 -76q-12 -16 -16 -40q-12 -16 -24 -48q-16 -20 -32 -52v-12l-8 -12l4 -20l-8 -12h-20l-12 20l-12 60l-12 24l-8 12q0 20 -8 40l-36 56q-16 44 -20 96l-28 72q0 16 -8 40v20l-4 16l-36 84l-4 20 q-12 32 -20 76l-24 64l-16 28q-4 28 -16 68v12l-28 80v16q-8 12 -16 32q-16 28 -28 64q-12 28 -20 72l-8 28q-24 44 -36 76q-4 24 -8 36q-12 24 -24 84l-8 12l-8 28l-12 32q0 -48 16 -120v-56q1 -19 1 -35q0 -33 -5 -57q11 -40 11 -89q0 -24 -3 -51v-88q4 -24 4 -64v-76 q12 -36 12 -88q4 -14 4 -30t-4 -34q4 -12 4 -32v-12l8 -68q4 -4 4 -16q4 -48 4 -80v-20q-8 -20 -8 -48v-16l4 -40q4 -24 4 -56l-4 -68q4 -24 -4 -56l8 -24l-24 -12l-12 12q2 16 2 35t-2 41q9 27 9 61q0 11 -1 23l-4 120l4 16l4 16l-8 144l-8 12v84l-4 28q1 9 1 18 q0 36 -13 78q2 20 2 45t-2 55v76q-4 16 -4 40v16l4 20q-4 20 0 28l-4 156l4 8q-4 4 -4 16v60q-12 28 -12 72l-4 8l-4 32l4 8q-4 12 -4 32q-4 32 0 48z"/>
<glyph glyph-name="N" horiz-adv-x="971" unicode="N" d="M28 1388q-4 15 -4 29q0 29 16 59l20 -12q4 -12 4 -32q16 -24 28 -60q16 -16 24 -40q4 -4 8 -16l20 -44q12 -16 32 -64q16 -16 36 -52l12 -8l36 -64l8 -8q12 -24 36 -52l8 -12l32 -64l8 -28l4 -8q12 -8 24 -28l8 -12l36 -72l8 -12l8 -20l16 -24q24 -32 44 -88 q28 -32 56 -84l24 -40l24 -48l48 -68q12 -40 48 -88l20 -40l28 -56l12 -8q12 -32 40 -72l12 -12l12 -28l4 44q-4 12 0 32v12l8 48q-8 28 -4 60v68l-4 12l-8 320q8 40 8 100l-4 32l8 80v12q-4 28 -4 76q8 32 12 80l4 32l-4 8v32q0 16 4 40v100q-4 16 -4 34t4 38l-4 8v60 q4 16 20 24l12 -12q-7 -29 -7 -62q0 -22 3 -46l-4 -12l4 -44v-100l-4 -44q4 -28 0 -40v-20l-4 -24l-8 -44v-88l4 -8q-4 -12 0 -32l-4 -12v-92l-4 -36q1 -8 1 -17q0 -27 -9 -63l4 -12q5 -27 5 -62q0 -18 -1 -38l4 -28l-4 -16q4 -24 4 -56l8 -68q-2 -14 -2 -31t2 -37v-64l4 -8 l-4 -20q-4 -4 0 -16q-8 -28 -4 -60l-4 -84l-4 -16l8 -12l-12 -20q-12 0 -20 8l-28 72q-4 16 -16 32l-12 20l-4 12l-120 204l-8 8q-8 28 -32 60l-4 8l-28 44q-4 12 -16 32q-12 24 -20 36q-12 24 -40 52l-12 28l-8 8q-8 20 -24 44q-8 28 -28 60l-52 92l-12 20l-4 16 q-12 16 -40 68q-4 12 -24 52q-20 24 -40 60l-16 24l-12 20l-12 24l-44 56q-4 4 -8 16q-12 16 -24 48l-12 20l-12 16l-4 16l-56 100q0 -32 8 -80l4 -32l-4 -28l-4 -12q4 -28 0 -52l4 -20q-8 -32 -8 -84q-4 -20 0 -28l-8 -80l-4 -12q4 -12 0 -32v-264l-4 -20q-4 -26 -4 -49 t4 -43v-100l4 -12l-4 -16v-72l4 -20l-8 -56v-16q-2 -14 -2 -30t2 -34q-4 -20 -4 -28q5 -27 5 -59q0 -16 -1 -33v-36l4 -16l-8 -32q-24 12 -28 44q8 28 0 60q4 12 4 32v100l4 44q0 28 4 72v68l-4 24q4 28 4 64l-4 116q4 12 4 32q4 24 4 40v120q2 16 2 36t-2 44q0 20 4 28 l-4 12q4 60 12 104v44l4 16l-8 12q8 20 10 42t2 46v52l4 24q-4 8 0 20q-12 36 -12 92z"/>
<glyph glyph-name="O" horiz-adv-x="780" unicode="O" d="M400 1415l-40 17l-44 -16q-20 -16 -84 -52l-16 -20l-8 -4q-177 -273 -177 -628q0 -30 1 -60q-4 -20 -4 -45t4 -55v-24l4 -8v-56q0 -20 8 -44l-4 -12q4 -4 4 -28l8 -24l-4 -20l16 -28q0 -24 8 -52v-12q16 -32 24 -76q16 -20 28 -60q28 -40 84 -76l96 4l12 4l12 -4 q20 0 68 16h12l28 12l28 36q32 24 48 64q12 8 24 28q20 40 28 100l20 52q4 24 20 56q4 28 16 64l4 24l4 24l16 48q4 44 12 76v80l-4 12q4 4 4 16l-12 164l-8 28v16q-8 28 -12 68v16l-8 12l-32 120q-12 28 -36 52q-4 28 -20 60l-8 32q-4 4 -4 16q-24 20 -40 48l-8 8 q-32 16 -68 31zM260 1408q60 48 127 51q41 -10 50 -24q47 -11 87 -67l16 -24l20 -64l4 -8l8 -32l32 -48q12 -32 24 -88q0 -12 8 -20l4 -24q12 -36 12 -88l8 -12v-32q21 -59 21 -128q0 -35 -5 -72q6 -24 6 -50t-6 -54l4 -12l-40 -176l-4 -16l-12 -44l-4 -20l-16 -40l-12 -28 l-4 -16l-20 -76l-8 -20l-12 -12l-4 -16q-24 -44 -68 -80q-8 -16 -24 -32q-40 -16 -100 -24q-4 -4 -16 -4h-32q-24 0 -48 -8l-20 4q-6 -1 -12 -1q-37 0 -72 21q-20 20 -48 60l-20 32q-12 28 -20 68l-20 60l-12 52q-4 16 -4 40q-4 4 -6 14t-2 18l-4 44l-4 16v76q-9 40 -9 92 q0 18 1 36l-4 16l4 12v64q4 28 4 64l4 8l-4 8l4 12l4 44l4 44v12l8 24q0 24 8 48l-4 12l24 80q8 16 12 40l4 20q16 24 24 56l20 48q16 20 24 48l28 36l20 28q8 16 24 32z"/>
<glyph glyph-name="P" horiz-adv-x="640" unicode="P" d="M436 1339q-116 105 -284 105q-12 0 -24 -1l-52 -8l-24 -4l-16 -4q-5 -21 -5 -50q0 -14 1 -30q-2 -28 -2 -50t2 -38l-4 -8l-4 -64l4 -8l-4 -16v-92q9 -30 9 -67q0 -12 -1 -25l-4 -100l-4 -16q12 -28 8 -60l4 -36q-8 -34 -8 -70t8 -74v-16q14 -1 28 -1q126 0 256 65 q197 45 197 300q0 19 -1 40l-8 100q-16 28 -20 64l-8 24l-4 8l-8 44zM20 1467q15 -5 32 -5q22 0 44 9q18 -4 39 -4t45 4l24 -4l12 -4h60q20 -12 52 -20h16q44 -28 68 -48l36 -28q16 -24 28 -64q4 -16 16 -32l4 -8q8 -16 4 -36q8 -16 12 -40l28 -88l4 -116l-4 -44l-4 -12v-44 q4 -4 4 -16q-4 -4 -4 -32q-24 -68 -80 -132l-4 -8q-32 -24 -72 -36l-12 -8q-20 -8 -56 -16q-12 -8 -32 -16l-76 -20l-16 -8q-24 0 -56 -8q-28 0 -64 -8l-32 -12v-88l-4 -28l8 -72l-4 -20l4 -76l4 -12l4 -64q-2 -16 -2 -35t2 -41l-4 -88q0 -24 -20 -44l-12 20q0 36 8 80v88 l4 44v16l-8 72q-4 20 0 52v16l-4 52q0 28 4 44l-8 184l-4 32l4 16v40l4 44l-4 44v16l-4 20q0 28 4 72l-4 20l4 16l-4 128l-4 28l4 56l-4 32l8 28l-4 32l4 28l4 24l-4 28q1 9 1 20q0 20 -5 44l4 24z"/>
<glyph glyph-name="Q" horiz-adv-x="800" unicode="Q" d="M444 1344q-36 24 -84 28q-32 -12 -84 -12l-20 -8q-4 -4 -14 -6t-18 -2l-44 -32q-20 -12 -48 -36l-32 -64l-4 -12q-4 -4 -16 -24q0 -32 -16 -68l-16 -56l-4 -24l-4 -72l-12 -56v-56l4 -28l4 -20l4 -104l8 -40q0 -28 8 -72l8 -12v-16q8 -20 12 -56l4 -12l8 -64 q12 -28 12 -68l20 -64q4 -4 0 -16q24 -28 44 -76q8 -28 36 -60q4 -20 8 -28q36 -60 104 -92q100 0 180 76q-33 30 -33 66q0 7 1 14q28 -4 40 -32q12 -40 36 -4l60 88l24 100l4 16l4 16l4 16q0 24 8 56l4 16q0 24 8 56l4 20q4 28 4 64l4 8l-4 12q18 88 18 172q0 302 -234 568 zM348 1396l33 3q23 -8 50 -14l29 -13q40 -36 84 -108q8 -12 28 -32l36 -60l12 -16l36 -100v-12q20 -36 28 -88q4 -20 6 -28t6 -16l4 -116q2 -10 2 -17t-2 -11l-4 -44q4 -8 -4 -28q1 -10 1 -21q0 -33 -9 -75l-4 -44l4 -20l-8 -48l-12 -52v-16l-8 -24l-4 -52q-8 -20 -8 -28 v-16q-12 -28 -16 -68l-12 -36q-16 -28 -48 -68q-8 -16 -24 -32q-4 -4 -4 -16l8 -8q16 -24 56 -56l48 -44h12l4 -16l-20 -8q-36 20 -76 60l-24 24l-12 8l-24 28q-75 -78 -179 -78q-29 0 -61 6q-100 84 -152 224l-20 24l-28 92v44l-12 44v16q-12 24 -12 56l-8 28q-4 12 -4 32 l-4 20q-4 4 -8 16l-8 68q0 20 -8 44l-4 24q3 18 3 36q0 27 -7 56q-1 9 -1 20q0 20 5 44q0 20 4 52v20l4 12q0 24 8 56v32l28 88v12l8 16l8 36l36 64l8 20q92 96 240 104z"/>
<glyph glyph-name="R" horiz-adv-x="701" unicode="R" d="M296 1428q-40 8 -100 8l-64 -16l-88 -4l-12 -16q4 -28 4 -62t-4 -74q0 -20 8 -48l4 -12v-24q-9 -30 -9 -67q0 -12 1 -25l-4 -16l4 -8l4 -64l4 -32q0 -20 -4 -28v-48l-4 -24v-100l4 -32q0 -32 4 -48v-36q6 -1 14 -1q22 0 50 9q48 4 76 16q152 36 260 176q145 109 145 283 q0 42 -9 89q-8 32 -32 68l-8 24l-16 24l-8 8l-16 24l-28 28l-140 32q-24 0 -36 -4zM132 1444q24 12 56 20h96l12 -4h24l12 -4l12 4q24 -8 56 -8l12 -4q28 -4 64 -20h12q96 -92 124 -240q6 -35 6 -69q0 -157 -138 -275q-108 -144 -300 -204q12 -40 48 -84q16 -16 24 -40 l16 -16l4 -16l12 -8q8 -20 24 -44t32 -68l12 -28l12 -32l4 -12l40 -84l20 -32q4 -4 8 -16l12 -20l32 -40q4 -12 20 -28l8 -8q0 -16 -8 -28h-28l-36 64l-16 20l-4 8q-12 16 -16 40l-12 20l-8 8l-120 260l-20 32l-12 16l-24 36q-24 24 -44 68l-8 8l-8 20q-92 -8 -100 -48 l4 -120q4 -24 4 -56q-4 -20 -4 -28l4 -96l4 -28l-4 -80l4 -8v-108l4 -48q-8 -12 -28 -16q-7 19 -7 40q0 14 3 28v60l-4 12q4 48 4 124v32q0 16 -4 40l4 20q-4 8 0 16v52l-4 16l-4 100q-4 12 0 24v24q-12 12 -20 36q4 12 20 20v48l-4 12v40q-4 4 -4 16v108l4 8v100l-4 20v60 q0 32 4 80v56l4 24q-12 28 -8 60l-4 8q0 28 8 72l-4 8v28l4 28q-8 8 -8 24q16 4 36 4t44 -4q12 4 32 4z"/>
<glyph glyph-name="S" horiz-adv-x="701" unicode="S" d="M12 1037q-3 35 -3 67q0 296 303 325h16q20 1 37 1q136 0 136 -77q0 -6 -1 -12h-12q-44 60 -116 60q-19 0 -40 -4q-292 -4 -292 -315v-17q8 -72 60 -136l132 -44q28 -4 68 -20l16 -4q24 -4 56 -16l20 -8q24 -20 68 -44q96 -112 136 -272l4 -8q0 -28 -8 -64v-52 q-4 -20 -8 -28l-8 -44v-16l-8 -12q-8 -76 -60 -148q-54 -164 -224 -164q-59 0 -132 20q-24 28 -64 48q-16 12 -40 24l-12 12q-24 32 -36 80l20 16q60 -160 248 -168q17 -2 32 -2q134 0 184 154l20 24q64 143 64 263q0 212 -196 357l-108 32l-8 4l-44 8l-28 12q-32 4 -68 20 h-16q-64 56 -88 148z"/>
<glyph glyph-name="T" horiz-adv-x="950" unicode="T" d="M680 1455l12 4q18 -4 39 -4t45 4h32q20 -4 28 -8q6 -6 6 -14t-6 -18q-16 8 -44 12q-56 -8 -152 -8l-12 -4h-20q-36 -4 -52 -8q-36 8 -84 8h-68q-20 4 -56 4q-12 -24 -12 -56q16 -56 16 -136v-24l4 -16v-84q8 -16 8 -40l4 -204l4 -28l12 -48l-4 -24l4 -28l4 -28 q-4 -24 -4 -53t4 -63v-104l4 -36l-4 -52l-4 -12q4 -20 4 -80q-4 -20 0 -40q-4 -24 -4 -58t-16 -82v-16q5 -24 5 -53q0 -15 -1 -31l8 -12l-12 -20l-20 4q-9 37 -9 81q0 33 5 71q12 32 12 76q4 28 4 64q0 48 4 80v100l4 8q-4 12 -4 32l-4 8l4 12l-4 12v96l4 12q-4 20 -4 52 t-4 56l-4 28q4 16 -4 32v28l-4 28l-4 8l-4 184l-8 40v80l-4 16v76q0 28 -12 60l-4 24v56q-28 4 -60 0h-84q-21 -5 -50 -5q-14 0 -30 1l-8 -4h-24l-36 4q-12 8 -16 28q4 8 16 12q43 -15 90 -15q40 0 82 11q24 -6 53 -6t63 6l16 -4l12 4l12 -4l12 4q44 -4 68 -4l8 -4 q24 4 42 4t30 -4h104q28 12 72 12z"/>
<glyph glyph-name="U" horiz-adv-x="835" unicode="U" d="M19 1446l14 15h4q28 0 18 -30q-7 -25 -7 -54q0 -22 4 -46q-2 -28 -17 -59l-2 -96l3 -8q-4 -38 -4 -68t4 -52l-2 -32q6 -21 6 -29q-1 -12 -1 -24q0 -23 4 -44q-3 -19 -3 -41q0 -33 7 -72l1 -44q4 -4 3 -16l-7 -100l3 -12l-2 -24l2 -32l-4 -56q2 -22 2 -50q0 -33 -3 -74 l3 -21l3 -20l-5 -64q4 -56 14 -93l5 -44l3 -13l14 -29l2 -24l14 -25q73 -43 170 -43q16 0 32 1l29 10q12 -1 32 10l45 9l12 -1l45 9l16 7l26 22l32 62q5 3 14 27q5 16 19 35l27 50l36 102q1 24 11 47l2 24q14 31 17 75l5 12v56q5 19 7 51l6 24l5 12l1 24l-1 32q1 20 11 51 l2 20q-6 29 0 60l-4 8q2 28 13 64q-3 12 0 56l5 20l2 27l5 20l-2 20l1 68v15q0 23 -4 50l-2 24l-2 28l3 40q-3 24 -13 57q-2 28 27 42l12 -8q-3 -15 -3 -33q0 -15 2 -32l-2 -31l3 -13l-5 -11l8 -13l-1 -12l1 -44l3 -12l-3 -40l3 -16l-3 -36l2 -29v-5q0 -47 -16 -114l-8 -119 l1 -45q-2 -28 -13 -63l3 -20q-6 -24 -8 -56l-5 -15l-10 -84q3 -12 2 -32q-10 -27 -13 -63q-9 -20 -10 -36l-5 -15l-2 -28l-31 -90v-12l-33 -62q-9 -12 -18 -31l-1 -12l-8 -8q-6 -19 -19 -42l-14 -23l-9 -16l-22 -26q-34 -23 -74 -23q-10 0 -20 1q-75 -29 -154 -29 q-89 0 -182 37q-18 25 -24 65q-14 29 -16 50l-7 12q1 24 -5 49l-6 32l-2 24q-2 25 -1 41l3 43l-2 33q-2 24 0 56l3 96l-3 12q5 24 5 76q-1 9 -1 24q0 20 2 52q-2 20 2 28l-3 72l-6 29l-2 28l1 12l-1 44l1 20l-2 24l3 40l-3 20l-6 29l4 220q16 52 16 115q0 33 -4 69z"/>
<glyph glyph-name="V" horiz-adv-x="950" unicode="V" d="M856 1427l14 23q15 0 23 -13l-25 -95l-5 -23l-5 -20l-6 -28l-6 -44q-6 -27 -20 -63l-5 -27l-5 -20l-5 -24l-5 -20l-14 -39q-9 -12 -10 -28q-9 -27 -11 -63l-1 -12q3 -28 -7 -60l-15 -67l-5 -16l-10 -27l3 -28l-6 -24l-5 -24l-5 -28q-40 -62 -52 -149q-9 -24 -15 -56 l-38 -110v-12q-19 -39 -25 -95q-6 -31 -32 -74l-5 -12q-7 -63 -26 -107q-13 -27 -42 -45l-15 12q-10 45 -39 107q-10 36 -15 93q-3 20 -3 28l-30 113l-3 9l-11 32q-3 16 -14 41l-3 16l-3 16l-3 17l-10 36l-47 183l-3 16l-10 37l-3 16l-17 65l-3 8q-3 32 -17 69l1 12l-10 40 q-22 42 -27 102q-7 12 -14 33q-2 32 -20 73q-22 33 -44 86q-22 34 -39 91l-8 8q-10 21 -21 53q-11 25 -13 45l5 28l24 -6l-1 -24l6 -28q18 -33 39 -90l26 -50l3 -12l29 -53l19 -37l7 -17q14 -37 23 -89l11 -29l3 -16l13 -49q10 -32 13 -60q15 -25 17 -61l13 -45l3 -20 q11 -33 20 -89l6 -29l8 -12l3 -16l10 -45l2 -20q15 -25 21 -61q15 -33 20 -89l14 -41l10 -21l-1 -20q15 -29 25 -65q3 -28 13 -65l-1 -12l10 -41q3 -20 2 -28q17 -61 44 -90q26 47 25 103q5 19 10 31q35 55 43 130l51 142l5 15q2 32 12 68q9 24 15 63l5 12q13 19 26 51l9 23 q6 32 9 80q1 20 6 40t18 47l5 24l6 23v12v6q0 47 15 114q22 35 28 86l29 91l3 48q13 27 15 71l6 28l18 51z"/>
<glyph glyph-name="W" horiz-adv-x="1370" unicode="W" d="M0 1452q4 16 16 32l24 -12q0 -52 24 -112q12 -24 16 -56l8 -24q0 -36 36 -136l4 -8q4 -28 20 -60l12 -108l-4 -28q16 -28 20 -72l4 -8l4 -32l16 -52q12 -44 24 -104v-16l4 -16l4 -16l8 -56q8 -24 8 -52l12 -44q8 -32 12 -80l12 -28v-12l32 -116q4 -16 6 -42t18 -62v-12 l8 -20l4 -28l8 -20l12 28q0 68 40 144q4 16 16 40l28 72q4 20 16 44l16 100l8 28l4 16l40 120l12 68l4 20l4 28l4 8v52l12 88l4 20l8 44l20 24q12 -4 28 -20l20 -80v-12l28 -60l12 -28l4 -12q8 -20 12 -52l28 -88l4 -20l16 -44l4 -20l20 -64l12 -48q12 -28 20 -64 q8 -12 12 -32l4 -24q4 -40 28 -96l8 -28l8 -20l4 -20l16 -40q28 64 28 144v20l16 64l52 108q4 4 8 14t8 30q8 28 28 68q4 20 16 48q4 20 16 48l4 24l12 28l4 16l12 32v16q8 28 12 64q12 36 20 88l36 100q0 20 4 40l12 28q0 36 12 100v52q0 24 4 56q29 52 29 118q0 15 -1 30 q16 12 40 4q0 -68 -36 -144l-8 -64l-4 -8v-24l4 -8l-8 -48v-16l-12 -84l-4 -20l-12 -40q-20 -40 -32 -100l-8 -12q-4 -56 -16 -88q-4 -24 -4 -40l-8 -20v-16l-12 -28q-8 -36 -28 -80l-28 -92q-8 -28 -28 -64q4 -4 -8 -28l-48 -100l-8 -24l-4 -24l-4 -28l-4 -12q4 -20 -4 -44 q0 -32 -16 -84q-4 -20 -4 -32v-20q-8 -24 -28 -44q-12 4 -24 16q0 44 -20 100v12q-8 16 -16 48l-16 40l-32 132l-12 28q-8 48 -52 188l-4 16q-12 44 -24 72v12q-8 24 -12 56q-20 60 -40 92q0 12 -12 32q-4 32 -20 76q-12 -32 -12 -76q-9 -30 -9 -64q0 -12 1 -24l-4 -16 l-12 -64q-8 -24 -12 -60q-8 -24 -8 -40l-8 -12v-12q-4 -4 -8 -16l-24 -72q0 -28 -12 -60v-24l-8 -32v-12l-12 -36q-12 -16 -16 -40q-12 -12 -16 -36l-12 -28q-8 -36 -28 -72l-4 -24l-8 -48l-12 -32v-12q-16 -24 -44 -36q-24 40 -32 104l-4 8q-4 28 -16 64l-4 32v12l-8 12 l4 12q-12 28 -20 76l-4 12q-4 24 -16 56q0 16 -8 44l-6 30t-6 38l-16 80l-4 32v12l-12 64l-8 24v12q-4 4 -4 16l-8 24v12q-8 16 -12 40l-8 44q-8 24 -8 52l-12 36l-8 92l-4 20l-4 20q-16 32 -24 80l-8 20l-4 16l-4 16q-12 28 -16 68l-12 44l-8 20q-4 28 -24 72q-8 24 -16 36 z"/>
<glyph glyph-name="X" horiz-adv-x="1040" unicode="X" d="M840 1460l12 8h8q12 -16 8 -36q-24 -24 -48 -64l-16 -20l-32 -80l-8 -12l-52 -108q-8 -16 -24 -32l-4 -12q-16 -24 -22 -54t-26 -62l-12 -36l-44 -92q-8 -32 -28 -76q-28 -32 -48 -88q20 -20 80 -100l12 -20q16 -20 20 -28q0 -16 12 -32l20 -32l12 -12l4 -12 q36 -32 60 -84l16 -32q8 -28 36 -60q4 -16 16 -36l4 -8q20 -32 56 -72l16 -20l20 -24q24 -40 52 -68q0 -12 -8 -28l-28 8l-44 68l-12 16q-4 4 -8 16q-12 8 -24 24l-8 8l-16 24l-4 8q-24 24 -36 64l-24 40l-20 28q-8 32 -32 76q-56 56 -88 136q-16 16 -24 40l-76 84 q-36 -40 -60 -104q-20 -16 -40 -52l-28 -64q-16 -16 -32 -40l-48 -56l-20 -32q-8 -12 -24 -28l-36 -52q-20 -20 -36 -56q-20 -28 -36 -76l-8 -12q-16 -16 -48 -32l-44 -52l-4 -8h-24q16 60 104 116l40 88q20 20 32 52l88 120l16 20l32 36q12 12 24 32l32 60q4 12 16 32l8 8 l16 28l8 8q4 16 16 36l4 8l36 48l-112 176q-4 4 -8 16l-20 40q-12 28 -36 64q-12 20 -16 28q-12 12 -28 36q-20 16 -32 40q-20 20 -24 28q-8 28 -32 64l4 8l-16 24q-12 16 -24 44q-16 16 -28 40l-16 16l-12 16q-8 36 -36 84l8 16l28 -12l8 -40l72 -112l8 -20q16 -24 32 -60 q4 -4 8 -16l16 -36q16 -16 32 -40l48 -56l28 -48q12 -28 36 -64l16 -40l48 -72l4 -12l44 -60v-16q4 -4 16 -4q44 60 64 144l28 40l16 56l16 24l24 60l8 32q12 20 12 28l96 176l20 56q16 32 48 76l12 16q8 16 8 24z"/>
<glyph glyph-name="Y" horiz-adv-x="830" unicode="Y" d="M708 1456h4q16 -12 16 -28q-24 -28 -44 -76l-8 -12l-28 -68l-12 -12l-12 -24l-4 -16q-12 -16 -24 -40l-24 -56l-12 -32l-4 -16q-12 -20 -16 -44l-12 -24q-16 -32 -52 -76q-24 -36 -32 -60q0 -28 -16 -64l4 -88l4 -28v-40l-8 -24v-40q4 -20 4 -43t-4 -49q-4 -4 -4 -16 t-4 -28q4 -12 0 -32v-80q-1 -20 -1 -40q0 -39 5 -76v-56q4 -20 4 -88q0 -16 -4 -40l8 -28l-12 -12q-12 0 -24 12q4 22 4 45t-4 47l4 8v56q0 16 -4 40l-4 140l4 28q-1 24 -1 46q0 68 9 122v16q-2 14 -2 32t2 40l4 24l-17 181q-27 37 -71 85q-44 34 -72 102q-24 32 -48 88 l-8 8l-16 24l-12 16l-40 56l-16 20l-4 8l-20 36q-8 36 -40 72q-12 24 -32 52l-8 8q-1 4 -1 8q0 12 9 24l20 -4q12 -48 52 -92l44 -104l40 -52l12 -16l16 -12l84 -152q8 -16 28 -44l4 -12q36 -30 80 -76q12 -4 24 0q20 52 64 104l16 24l12 20l44 120l12 20l4 16q20 32 44 88 l36 64l4 16q4 8 16 20q8 40 40 84z"/>
<glyph glyph-name="Z" horiz-adv-x="1090" unicode="Z" d="M757 1448q17 -2 37 -2q36 0 83 6q28 -1 39 -29q-45 -27 -75 -82q-4 -24 -21 -47q-9 -28 -18 -39l-9 -28l-12 -24l-1 -16q-4 -3 -9 -15q-4 -4 -8 -16q-21 -31 -47 -86l-13 -12l-21 -43q-9 -28 -30 -59l-9 -20v-12q-21 -27 -34 -59l-13 -23l-9 -12l-8 -12q-9 -20 -26 -43 l-4 -16l-47 -78l-12 -16q-13 -27 -39 -63l-12 -23l-5 -16q-13 -16 -25 -39l-13 -12l-46 -62l-13 -28l-8 -7l-42 -55l-9 -16l-41 -42l-13 -16q-21 -23 -38 -62l-13 -16l-4 -12q-12 -7 -45 -42l-39 -59q-29 -35 -30 -63q37 -10 77 -10q38 0 79 9l12 -5q8 1 21 1q30 0 83 -5 l44 11l68 -2q15 -3 31 -3q19 0 42 4l7 -4l13 3l108 1q20 3 45 3t55 -3l28 3l12 4l92 -8l8 4q16 0 40 -5l16 3l12 -4l28 7q20 -4 20 -21q0 -4 -1 -8q-16 -7 -44 -10q-30 8 -67 8q-27 0 -57 -4q-24 9 -56 6q-16 -3 -40 -3l-16 1l-16 4l-16 -3q-25 -7 -60 -2l-9 -4q-24 3 -43 3 q-23 0 -41 -4l-68 3l-28 -3q-19 6 -40 6q-23 0 -48 -7l-28 1l-12 -4l-56 2l-16 5l-40 -7q-16 2 -36 2q-24 0 -52 -3l-64 6l-12 5l-28 1l-7 24l25 11l50 82l13 16q4 12 17 31q58 46 97 129l37 39q21 15 38 47l8 7l21 32l17 19l4 8q17 15 25 39l13 12l64 109q16 16 29 47 l26 40l4 11q17 20 34 55l34 55q13 20 26 51l12 16q9 20 15 28t15 31l56 114l13 24l9 11q12 20 26 51l8 16q17 19 26 51l48 123l9 15q17 24 30 55l8 4q-16 9 -48 10l-152 1l-12 -4l-12 5l-61 -18l-96 -1l-40 -6l-12 -4h-12q-45 0 -108 12l-20 5q-20 -3 -32 -3q-22 -3 -48 -3 t-56 3l-16 -4q-28 5 -35 34q25 7 56 -6l64 -3q26 10 65 10h7l24 -9l48 -6l8 -4l32 -1q24 7 52 6q28 7 56 6q20 3 48 -2q59 20 129 20q22 0 44 -2z"/>
<glyph glyph-name="bracketleft" horiz-adv-x="620" unicode="[" d="M12 1511q4 12 16 28q24 -4 36 -24l24 -4q20 4 43 4t49 -4l8 4h52l24 8l28 4l28 -4l112 -4l12 -4h64l12 -12q0 -20 -20 -24q-16 8 -36 4q-30 9 -64 9q-12 0 -24 -1q-28 5 -59 5q-51 0 -109 -13l-116 4q-20 0 -48 -12q2 -14 2 -32t-2 -40l4 -28q0 -36 4 -60l-4 -28l4 -32 l-4 -44v-88l4 -24l-4 -76q-4 -18 -4 -37t4 -39q-2 -18 -2 -41t2 -51v-88l-4 -28v-92l-4 -24l4 -28l-4 -24v-72l-4 -8l4 -164l-4 -8l4 -100l4 -8v-28l4 -16q1 -21 1 -40q0 -57 -9 -96q3 -11 3 -24q0 -19 -7 -40l12 -24q37 -11 80 -11q21 0 44 3q24 -6 54 -6t66 6q24 -4 52 4 l24 4l28 4l24 4l12 4q16 -8 16 -32l-24 -16q-20 12 -52 4q-36 -4 -60 -8h-64l-8 -4l-128 4q-6 1 -14 1q-22 0 -50 -9l-36 28l-8 8l-4 28q4 12 4 32q-1 9 -1 19q0 30 9 69l4 44l-4 116l-8 40l4 20v88l-4 16v56q4 44 8 68l-4 8v44l4 20v176q2 14 2 30t-2 34v56l-4 28l4 24v48 l4 28l4 28v168l4 20q-4 28 0 40l-4 16v140q-4 4 0 16q-8 32 -8 60z"/>
<glyph glyph-name="backslash" horiz-adv-x="590" unicode="\" d="M0 1416l4 32l28 -4q4 -56 40 -124l8 -32l4 -20q12 -20 16 -52l48 -128q4 -28 36 -112l4 -20l12 -24l20 -72l4 -8l16 -60l8 -16l36 -100l4 -16l12 -36l4 -16l40 -140l12 -52q12 -20 12 -28l12 -28l20 -60q12 -28 28 -108l8 -20l4 -20q16 -32 24 -80l4 -12l20 -28l-12 -32 q-16 0 -28 16l-16 60q-12 36 -16 64l-8 12l-4 20q-12 40 -16 72l-12 36l-4 20l-16 40l-4 20l-44 128l-4 16l-36 120q-4 24 -16 52q-8 36 -28 80l-12 32q-4 20 -16 48q0 24 -16 56l-8 40l-12 20q-4 24 -16 52l-4 8l-8 32l-4 16l-12 40q-4 12 -16 32l-16 56l-8 12 q-8 20 -12 52l-12 40q-8 24 -24 52l-16 52z"/>
<glyph glyph-name="bracketright" horiz-adv-x="610" unicode="]" d="M508 -61q-4 -12 -16 -28q-24 4 -36 24l-24 4q-20 -4 -43 -4t-49 4l-8 -4h-52l-24 -8l-28 -4l-28 4l-112 4l-12 4h-64l-12 12q0 20 20 24q16 -8 36 -4q30 -9 64 -9q12 0 24 1q28 -5 59 -5q51 0 109 13l116 -4q20 0 48 12q-2 14 -2 32t2 40l-4 28q0 36 -4 60l4 28l-4 32 l4 44v88l-4 24l4 76q4 18 4 37t-4 39q2 18 2 41t-2 51v88l4 28v92l4 24l-4 28l4 24v72l4 8l-4 164l4 8l-4 100l-4 8v28l-4 16q-1 21 -1 40q0 57 9 96q-3 11 -3 24q0 19 7 40l-12 24q-37 11 -80 11q-21 0 -44 -3q-24 6 -54 6t-66 -6q-24 4 -52 -4l-24 -4l-28 -4l-24 -4 l-12 -4q-16 8 -16 32l24 16q20 -12 52 -4q36 4 60 8h64l8 4l128 -4q6 -1 14 -1q22 0 50 9l36 -28l8 -8l4 -28q-4 -12 -4 -32q1 -9 1 -19q0 -30 -9 -69l-4 -44l4 -116l8 -40l-4 -20v-88l4 -16v-56q-4 -44 -8 -68l4 -8v-44l-4 -20v-176q-2 -14 -2 -30t2 -34v-56l4 -28l-4 -24 v-48l-4 -28l-4 -28v-168l-4 -20q4 -28 0 -40l4 -16v-140q4 -4 0 -16q8 -32 8 -60z"/>
<glyph glyph-name="asciicircum" horiz-adv-x="640" unicode="^" d="M218 1401q12 12 24 32h28q8 -16 4 -40l24 -44l4 -12l60 -96l12 -20l20 -28q4 -12 20 -32l20 -24q8 -24 32 -56l24 -48l16 -20q8 -12 24 -28q1 -4 1 -8q0 -12 -9 -24q-24 4 -38 30t-38 58l-4 16l-12 20q-12 20 -20 28l-8 16l-56 88l-8 16l-28 36l-8 16q-4 4 -8 16 q-4 4 -8 16q-16 16 -28 48l-16 20q-24 -28 -40 -76l-16 -28q-12 -16 -24 -48l-20 -32q-8 -24 -28 -56l-28 -48q-4 -12 -16 -32l-20 -40q-12 -24 -20 -60l-8 -4l-24 -8q-4 7 -4 17t4 21q8 22 28 50l84 160l20 36q4 4 16 32l12 24q20 24 28 64l8 8l20 32z"/>
<glyph glyph-name="underscore" horiz-adv-x="980" unicode="_" d="M988 6l24 4q16 -9 16 -23q0 -10 -8 -21q-38 7 -90 7q-34 0 -74 -3h-24l-12 -4h-24l-20 4q-32 -4 -56 -8h-96l-12 -4l-228 -4q-20 -4 -48 -4l-28 4l-16 -4l-12 4l-196 8l-16 -4q-24 4 -52 0q-12 12 -16 32l12 8q29 -5 68 -5q19 0 40 1q16 -4 40 0l24 -4h16q24 -4 56 -4h20 l20 -4l24 -4q24 4 56 4l96 4q24 4 56 4l24 -4l28 4h60l8 4l12 -4l92 4l24 4l32 -4l132 8l12 4h36z"/>
<glyph glyph-name="grave" horiz-adv-x="260" unicode="`" d="M0 1447q0 12 8 24l12 -4l40 -84l8 -8l44 -64l36 -52l12 -16q2 -10 2 -22t-2 -26q-24 24 -44 68q-28 28 -56 76l-12 12z"/>
<glyph glyph-name="a" horiz-adv-x="780" unicode="a" d="M574 467q-64 44 -156 44l-20 -8h-12q-90 0 -172 -56q-164 -68 -192 -260q-3 -18 -3 -37q0 -62 31 -123q13 -1 29 -1q31 0 71 5h16q8 4 16 0l12 4h68q20 8 52 12l44 16q32 8 80 32l16 4l120 72l16 20q12 0 36 8l-4 52l-24 88v16q0 40 -16 96zM114 867q40 116 180 136 q92 0 192 -48q12 -24 40 -56l24 -80l4 -24q0 -40 20 -92q16 -36 24 -100l4 -24q-1 -8 -1 -17q0 -27 9 -63l12 -124l20 -80v-12l8 -44q4 -28 16 -48q-1 -9 -1 -17q0 -26 9 -55l-4 -8l8 -16v-20l4 -24v-44q-12 -8 -28 -8q-8 32 -12 88v40l-4 28l-12 12l-44 -24q-12 -4 -32 -16 l-88 -52q-28 -8 -72 -32l-52 -20q-16 0 -40 -8l-12 -8h-84l-12 -4h-24l-32 -4q-20 -4 -36 0l-68 -4q-20 24 -32 64q-7 48 -7 91q0 218 187 305q114 80 247 80q73 0 153 -24q-4 20 0 48l-8 32l-4 8q4 20 -4 40v12l-28 88q0 36 -16 84v12l-16 48q-12 20 -40 44l-12 16l-68 16 q-43 17 -80 17q-94 0 -152 -109l8 -16q-20 0 -44 16z"/>
<glyph glyph-name="b" horiz-adv-x="745" unicode="b" d="M592 855q-69 117 -146 117q-7 0 -14 -1q-48 -12 -116 -48l-44 -16l-60 -36l-32 -12l-48 -20l-100 -84v-104l-4 -12v-24l-4 -12l4 -256l4 -12l4 -156l8 -32l-4 -8q-4 -28 4 -60l-4 -8q16 4 38 6t46 2q32 -12 76 -12q44 -8 68 -8l8 -4h36q4 -4 14 -6t18 -2l44 -12l32 -4 l24 4l4 8l24 20q8 12 48 36l32 36q32 72 36 168q8 32 12 76q4 28 4 64v44l8 48v12q-1 11 -1 22q0 22 5 46l-4 180q-16 24 -20 60zM32 1407q0 28 16 60q24 0 20 -24q-12 -32 -12 -76l-4 -100q0 -16 -4 -40v-12q-4 -24 -4 -56l-4 -12q4 -24 -4 -52v-40l-4 -20l-4 -220l4 -20 q76 76 188 112q32 28 76 36q79 56 186 56h14q96 -60 140 -188q8 -40 8 -100q2 -2 2 -9t-2 -19v-68l-4 -12l-4 -144l-4 -28l4 -20l-12 -44l-4 -96q-8 -28 -8 -52l-24 -88l-12 -24q-12 -4 -24 -24l-44 -28l-8 -8q-16 -24 -48 -40l-16 -12l-12 4q-48 4 -108 28l-12 4l-64 4 l-8 -4l-28 8h-28l-28 4l-36 12q-52 -4 -64 -48q-12 -4 -32 -4l-4 152q0 16 -4 68q-4 18 -4 41t4 51l-4 8q0 28 -4 52q4 28 4 64v72q-4 28 0 60q-4 12 -4 32l4 8v24l4 32v68l-4 56q0 24 8 52l-4 24l4 24q-2 14 -2 32t2 40l-4 28l4 56l4 12l-4 12q4 56 12 92l-4 24q8 28 8 68 l4 100q0 24 4 40z"/>
<glyph glyph-name="c" horiz-adv-x="700" unicode="c" d="M6 515q-3 30 -3 58q0 314 331 394h13q101 0 195 -60q15 -21 15 -32q0 -13 -20 -12h-7q-20 28 -56 52q-64 19 -120 19q-198 0 -304 -231q0 -28 -12 -60l4 -24l-8 -44v-32l-4 -16q-8 -32 -12 -80q4 -248 168 -408l64 -8q14 -2 31 -2t37 2l16 -8q19 5 41 5q11 0 23 -1l52 12 l12 -4q16 12 32 32q36 20 60 60l16 12q21 -3 21 -22q0 -3 -1 -6q-87 -115 -234 -115q-22 0 -46 3q-11 -1 -23 -1q-25 0 -57 5l-12 -4l-44 8q-96 80 -148 216q-20 48 -20 108q-14 44 -14 90t14 94z"/>
<glyph glyph-name="d" horiz-adv-x="800" unicode="d" d="M632 783q-56 148 -220 208l-76 -28l-32 -28q-28 -16 -60 -52l-16 -12q-12 -20 -24 -32t-20 -24l-16 -16q-44 -60 -60 -148q-4 -20 -16 -44l-28 -96v-24q-8 -20 -8 -44l-16 -52v-32q-4 -4 -8 -28q2 -16 2 -48t-2 -80l20 -64q40 -64 120 -104q28 8 60 8t68 -8l20 4 q36 16 88 20q28 12 68 16l128 72l12 4q4 4 28 16l12 12q-8 28 -4 60l-8 8q4 32 4 48l-4 16l-4 84l-4 44q0 24 4 56l-4 56q4 20 0 48l4 8q0 28 4 64l4 32l4 8v60zM680 1495h4q15 -28 15 -61q0 -10 -1 -21q-3 -20 -3 -43q0 -31 5 -67l4 -8l-8 -48v-24l-4 -36l-8 -56 q4 -16 4 -34t-4 -38l4 -56q4 -8 0 -16l-4 -84l-4 -8l4 -28l-4 -28l-4 -76l4 -12l-8 -80l-4 -12v-92l-4 -28q4 -14 4 -30t-4 -34v-56q9 -35 9 -85q0 -16 -1 -35v-24l4 -28q9 -30 9 -67q0 -12 -1 -25l4 -12q7 -29 7 -60q0 -21 -3 -44l12 -36l-8 -8q-38 13 -38 87q0 19 2 41 l-12 12l-64 -36q-24 -12 -52 -32l-16 -8l-100 -32q-16 0 -40 -4l-12 -4q-60 -9 -109 -9q-16 0 -31 1l-16 -4h-52q-76 36 -136 116q-19 75 -19 154q0 119 43 246l-4 8l24 76l8 12q28 200 212 336q66 63 128 63q51 0 100 -43q92 -48 140 -156q4 20 0 44q4 12 4 32l4 12v32 l4 32q0 20 4 32q-5 24 -5 57q0 16 1 35v20l-4 16l16 132l4 28l-4 80l-4 12q4 12 0 32l4 24q-4 12 -2 26t6 30z"/>
<glyph glyph-name="e" horiz-adv-x="780" unicode="e" d="M640 797q-88 140 -276 156q-92 -8 -176 -68q-140 -152 -140 -384q12 4 24 -8q20 8 52 12l12 4l44 8l12 4l12 -4l12 8l44 4q20 8 52 12l20 8l28 4l28 12l64 4q24 0 52 12l48 4q4 4 28 0q52 20 56 64q-4 22 -4 45t4 47l7 30zM304 973l12 4q28 3 55 3q188 0 297 -171 q0 -16 8 -36l-7 -20l-5 -100l-4 -12l8 -40v-16l-44 -20l-52 -4l-64 -12h-12q-4 -4 -28 -4l-12 -4q-24 -8 -52 -4q-32 -4 -84 -20l-44 -12l-24 -4q-32 -8 -88 -12l-16 -4l-28 -8l-64 -12h-12q-8 -28 -12 -76l-4 -12v-28q-1 -14 -1 -28q0 -262 221 -296q48 -12 91 -12 q174 0 261 196q20 0 28 -20q-92 -198 -274 -198q-17 0 -34 2q-11 -1 -22 -1q-127 0 -238 85q-4 20 -20 40q-16 32 -28 84l-4 8l-4 64l-4 8v100l4 44l4 24q0 32 8 80l4 12v28q12 40 20 104l32 96l8 12l12 36l28 36l48 52q16 8 28 24l84 40z"/>
<glyph glyph-name="f" horiz-adv-x="710" unicode="f" d="M432 1439l12 8q164 0 204 -144l-24 -4q-49 110 -155 110q-25 0 -53 -6q-144 -48 -152 -252l-16 -132v-16l8 -8h108l12 -4l16 4h180l8 4l12 -4l24 4q12 0 24 -8l-8 -32q-24 5 -57 5q-16 0 -35 -1l-24 4h-72l-32 -8l-16 4q-16 -4 -36 0l-8 -4q-19 5 -44 5q-13 0 -28 -1 l-8 4l-12 -4q-11 -40 -11 -87q0 -24 3 -49l4 -212l4 -16l8 -44v-20q-1 -12 -1 -26q0 -28 5 -62l4 -364l-4 -8v-32q8 -12 8 -32q-9 -14 -25 -14q-7 0 -15 2q0 20 4 48v12q-4 28 4 60l-4 8l-4 328l-4 8v28l4 44q-4 12 -4 32l-8 68v20l-4 20l4 28q-4 12 -4 32q-2 16 -2 35t2 41 l-4 24v76q4 24 -4 52q-32 -8 -80 -8l-128 4l-8 28q16 4 40 4l52 -8l20 4l28 -8q28 8 72 12l8 4q0 28 4 112l12 68v16l24 76q0 32 20 72q16 24 48 56l4 8q52 20 92 40z"/>
<glyph glyph-name="g" horiz-adv-x="760" unicode="g" d="M616 919q-52 36 -124 44q-20 -4 -52 -4l-12 -4l-44 -4h-12q-220 -128 -288 -424l4 -36l4 -12q-2 -35 -2 -67q0 -375 245 -375q16 0 33 2q56 8 116 40l24 12l32 12l56 16q0 40 4 100l4 28q0 36 4 80q0 32 4 124q8 44 8 76v20q-8 36 -8 92l-4 12v48l-4 12q0 44 12 108 l-4 12v32q4 24 4 56zM616 955l24 44h8q12 -12 16 -28q-10 -18 -10 -37t10 -39l-20 -16q-4 -28 -2 -62v-10q0 -30 -10 -64q5 -27 5 -62q0 -18 -1 -38l4 -16v-24l4 -24l4 -20v-100q-4 -12 -4 -32q-4 -16 -4 -33t4 -35q-4 -16 -4 -40l-8 -44q2 -12 2 -33t-2 -51l-4 -44v-56 q4 -16 4 -40v-32l-16 -92q0 -20 -4 -28v-52l-12 -88q-4 -28 -16 -64v-12l-24 -44l-4 -12q-20 -16 -32 -36q-12 -12 -64 -48q-9 1 -20 1q-22 0 -52 -5l-24 4l-12 -4q-36 12 -100 16q-16 0 -40 4q-36 0 -60 8l-12 4q-28 24 -52 64l-8 8q-20 20 -52 40q-8 4 -24 24q-4 4 -4 16 q8 8 24 12q12 -24 44 -44l4 -8l36 -28q20 -28 52 -60l88 -8l32 -8q24 4 56 -4h76l44 4q36 28 68 76l24 28l28 120q0 28 4 72v16q4 4 4 16v40l4 32q8 20 12 52q-4 20 -4 48q-20 0 -40 -8l-28 -4q-24 -16 -64 -28l-40 -24l-12 -4q-37 -6 -71 -6q-283 0 -283 418q0 77 10 168 q139 399 390 399q74 0 158 -35z"/>
<glyph glyph-name="h" horiz-adv-x="670" unicode="h" d="M0 1471q0 16 12 28l20 -12q-2 -16 -2 -34t2 -38l-4 -56q4 -16 4 -40l4 -80l4 -12l4 -44l4 -16q0 -32 -8 -80l4 -24q-4 -4 -4 -16v-136q40 16 92 56l64 24l24 16l44 12q20 4 44 20q88 -8 164 -84q93 -169 93 -379q0 -24 -1 -49q2 -14 2 -32t-2 -40l4 -8l-4 -140l-4 -44 v-56l-4 -20v-72l4 -8v-52l4 -40l-8 -20q-3 -1 -6 -1q-16 0 -26 17q7 22 7 48q0 17 -3 36v28q-4 12 -4 32v44q5 21 5 46q0 12 -1 26q5 24 5 84q0 30 -1 68l4 28v100q4 4 4 28l-4 24l4 16q0 36 -16 84l-4 24v12l-12 36l-8 28v16l-12 36l-4 20l-36 64l-72 48l-8 8l-28 12 q-8 -4 -12 0q-28 -4 -64 -24q-24 -4 -52 -20l-32 -12l-96 -48l-8 -12l-36 -16l-4 -188q4 -24 4 -56l4 -16q-2 -14 -2 -31t2 -37l-4 -12q4 -20 0 -28l4 -12v-56l4 -20l-4 -100q4 -20 4 -76l4 -16l-4 -20q0 -28 -4 -44q5 -21 5 -46q0 -12 -1 -26l4 -20l4 -28q0 -16 -12 -24 l-20 12l-4 92l-4 16v32l4 12v108q-2 24 -2 54t2 66v32l-4 24v48l-4 8q5 21 5 48q0 13 -1 28q4 28 -8 60v72q4 12 4 32v168q-1 8 -1 16q0 25 9 52l-4 16v40l4 20v108q0 4 -8 8q2 14 2 32t-2 40l-4 20l4 16q-8 16 -8 30t-4 34l4 8q0 32 4 80z"/>
<glyph glyph-name="i" horiz-adv-x="235" unicode="i" d="M28 972q5 15 17 26l19 -17q-2 -28 4 -60l-2 -32l5 -45l3 -12q-6 -24 -8 -56l-7 -103l2 -21l3 -24q-6 -23 -4 -56q2 -24 0 -56l3 -8q-3 -15 -3 -34q0 -24 5 -54l-2 -28l3 -13l-5 -75q-5 -12 -2 -32q-7 -50 -7 -87v-9l-4 -8l-9 -116q3 -20 10 -32q-8 -22 -33 -22h-4 q-5 19 -5 39q0 24 7 49l3 48l7 48v48q-3 16 7 40v68l6 23l-1 45l-2 28l-2 28l3 44l-3 8l2 40v44l5 16l-8 12l2 16q-3 25 0 57l10 151q-3 16 -1 40l-3 17q-2 28 -11 65zM0 1326l25 15q12 -1 27 -18q-18 -30 -30 -30q-14 0 -22 33z"/>
<glyph glyph-name="j" horiz-adv-x="470" unicode="j" d="M386 997q-4 16 8 32q20 0 28 -20q-8 -28 -8 -60q-5 -19 -5 -43q0 -12 1 -25l4 -8v-28l4 -28v-68q-5 -19 -5 -41q0 -11 1 -23l-4 -32l-4 -184q4 -16 4 -40v-36l-4 -24q2 -14 2 -30t-2 -34v-140l-4 -12l4 -136q4 -12 0 -52q0 -20 8 -44l-4 -16v-36q-5 -19 -5 -41 q0 -11 1 -23l-4 -20l-12 -52v-12q-44 -104 -144 -172q-172 16 -244 196q16 16 36 0q28 -88 124 -140q26 -19 52 -19q72 0 148 143l16 100q-2 15 -2 31t2 35t2 43t-2 55v52l-4 44v124l4 8l4 32v60q0 16 -4 40q0 28 4 44l-4 128q4 28 0 60l4 32l4 8v104l4 16v100l-4 8v144z M370 1293q0 20 12 36q33 -22 33 -32q0 -7 -18 -6q-10 0 -27 2z"/>
<glyph glyph-name="k" horiz-adv-x="588" unicode="k" d="M24 1467l12 16q20 0 32 -20q-12 -16 -20 -44v-72l-4 -28v-132l-4 -20l-4 -144q4 -24 4 -56l4 -152l-4 -28l4 -160l-4 -12l4 -28v-80l4 -24q12 28 44 68l24 48l12 16l68 120q12 20 36 36q20 20 40 44q28 36 44 68l40 76q12 8 40 44q28 12 32 -20l-4 -8q-24 -12 -48 -36 l-44 -76q-8 -24 -24 -44l-4 -8l-24 -28q-56 -48 -88 -124l-12 -16l-16 -24q-8 -20 -24 -36v-36q12 -28 40 -72l8 -20l16 -16q8 -16 20 -24l4 -12q4 -4 16 -28q16 -16 36 -44l88 -128l16 -20q12 -36 44 -76l36 -72l8 -8v-32q-12 0 -28 12q-20 28 -40 72l-28 44l-12 28l-56 84 q-12 12 -16 24l-56 76l-16 16l-8 16l-60 92l-40 68q-16 -12 -24 -36q-24 -24 -48 -72v-88l-4 -28v-36q4 -24 4 -56t-4 -56l4 -44l-4 -20q-4 -24 -4 -42t4 -30l-4 -20h-5q-29 0 -29 34q0 15 6 38l4 24v48l4 8v112l-8 24q4 20 4 48q0 40 8 100q-4 4 0 28v172l4 8v24l-4 12v152 q4 18 4 39t-4 45v12l-4 44v88q4 56 4 152v16l4 20l-4 20q4 48 4 124l4 20q-4 24 0 56z"/>
<glyph glyph-name="l" horiz-adv-x="189" unicode="l" d="M16 1459l8 8q20 -8 20 -28l-16 -68v-60l-4 -12l4 -28l4 -32q-2 -14 -2 -31t2 -37v-52l4 -16l-4 -44v-20q8 -24 8 -52q4 -28 8 -44v-52q-2 -14 -2 -32t2 -40l-4 -20l4 -88l4 -12v-40l4 -16q-2 -16 -2 -36t2 -44l-4 -12l4 -32l4 -256q-8 -28 0 -60l-4 -128q4 -16 4 -36 t-4 -44q-3 -1 -5 -1q-12 0 -19 17v80l-4 12l4 44v84l4 16q-4 20 -4 52v92q1 9 1 20q0 20 -5 44q4 20 0 44v184l-4 28v56l-4 32l4 16v80q0 36 -12 100v56q-5 27 -5 62q0 18 1 38l-4 16v44q4 4 0 16v40l-4 16q0 72 12 136l4 28v12z"/>
<glyph glyph-name="m" horiz-adv-x="950" unicode="m" d="M0 895q-1 12 -1 26q0 28 5 62q12 0 28 -12q0 -24 -12 -52v-40l4 -44l4 -100l4 -8q16 12 32 32q8 12 24 24l12 20l24 20l12 4l32 32l12 8l44 44l28 16l20 20q24 4 56 16q28 0 64 -8q76 -92 80 -240q72 168 252 264q16 0 36 -12q40 -36 64 -96q0 -32 8 -72l-4 -12l4 -8v-28 l4 -16v-60l4 -20l4 -32l4 -24l4 -20v-72l-4 -8v-40q-4 -24 0 -56l-4 -52v-124l-4 -12q4 -24 4 -56l4 -48l-4 -20q-1 -8 -1 -17q0 -26 9 -59q-12 -12 -32 -12q-7 30 -7 64q0 42 11 88v8q-9 41 -9 97q0 18 1 39v72q-4 24 4 52q-1 11 -1 21q0 32 9 67l-4 20l-8 112l-8 40l4 16 l-4 20q-4 12 0 32q-4 20 0 28l-4 24l-4 20v28q-16 56 -68 96q-152 -76 -240 -248q8 -12 4 -32q-16 0 -28 -16v-92l-4 -44v-84q1 -9 1 -20q0 -20 -5 -44l4 -16l-4 -28l-4 -24v-88l-4 -44q1 -9 1 -20q0 -20 -5 -44q0 -28 12 -72v-12q-8 -12 -24 -20q-20 32 -20 84q0 16 8 36 q-2 10 -2 27t2 41l4 16v84q8 32 12 76l-4 100l4 12l-4 8l4 52q-4 28 4 60l-4 8q0 32 4 80v24q-4 16 -4 38t-4 46l4 8l-4 16l-4 8v16l-8 4q-16 52 -64 92l-44 -4q-68 -28 -132 -100q-48 -28 -100 -92q-16 -16 -36 -44l-24 -12q2 -16 2 -36t-2 -44l4 -32v-148q-1 -11 -1 -23 q0 -24 5 -53l-4 -12l4 -28v-80q5 -35 5 -66q0 -16 -1 -30l4 -28l4 -32q0 -24 8 -56l-4 -20q-20 4 -32 20q2 20 2 45t-2 55v16l4 8l-8 28v56q-4 20 0 28q-4 44 -4 72v84l-4 52q0 28 4 64l-4 64l-4 12q4 24 0 52l4 12v24q2 18 2 53t-2 87l-4 12v56z"/>
<glyph glyph-name="n" horiz-adv-x="670" unicode="n" d="M54 812q88 124 240 200q84 0 156 -64q92 -148 104 -352q8 -20 4 -44q15 -52 15 -110q0 -50 -11 -106l4 -12l-4 -8v-36l4 -24l-8 -68l-4 -20q4 -24 -4 -56q0 -24 12 -52q-4 -20 -20 -44q-27 18 -27 61q0 14 3 31l12 88l4 28l4 44v80q4 32 4 76v84l-8 28v12q0 24 -8 56 q0 32 -8 80v12l-36 116l-4 24q-16 40 -52 88l-4 8q-52 44 -124 52l-84 -48l-108 -104q-20 -20 -48 -60l-8 -8v-128l4 -16q-1 -9 -1 -20q0 -22 5 -52l-4 -44q5 -24 5 -60q0 -18 -1 -40l4 -12l-4 -8q4 -12 4 -32q-3 -13 -3 -26q0 -19 7 -38l4 -52q-1 -13 -1 -29q0 -31 5 -71 v-32q-8 -32 0 -48q-4 -16 8 -28l-4 -28l-12 -4q-20 16 -24 40q-1 10 -1 20q0 32 9 68l-4 28l4 12q-8 36 -8 60l4 16l-4 20l-4 16v76l-4 20q4 28 0 62q-2 16 -2 36t2 42l-4 108q-4 16 -4 40l-4 24l4 28l4 32v68l-4 24q-7 29 -7 60q0 21 3 44q-12 20 -20 48q16 16 44 12 q-4 -16 -4 -36t4 -44q-3 -16 -3 -33q0 -35 11 -75z"/>
<glyph glyph-name="o" horiz-adv-x="690" unicode="o" d="M332 935q-16 8 -40 12l-20 3q-40 -3 -80 -31q-16 -16 -36 -44l-16 -16l-44 -72l-12 -12l-24 -88v-12l-8 -20l4 -12q-4 -4 -8 -16q0 -24 -8 -56l-4 -16v-32l-4 -16l-4 -32l-4 -20l4 -80q-4 -24 4 -52v-52q8 -28 8 -72l4 -8l4 -44q16 -16 24 -40l16 -28l24 -28 q64 -44 156 -44q20 4 48 4q242 125 242 411q0 26 -2 53q0 40 8 100q-4 8 0 16l-4 28l4 12q-12 28 -20 64l-12 16v12l-32 72q-8 24 -32 56q-24 20 -68 36l-24 20l-16 8l-20 16zM284 979l19 -5h2q40 0 79 -39q32 -12 76 -40l12 -4q108 -140 120 -336q-8 -28 -8 -68 q3 -30 3 -59q0 -155 -87 -313q-102 -136 -237 -136q-40 0 -83 12q-148 28 -160 196l-8 44l-4 32l-4 12l-4 44l4 12l-4 44v68l4 12v36l8 28q-1 9 -1 19q0 29 9 65l4 32l4 20l4 8q0 32 12 72q8 16 12 40l92 136q8 12 28 32q44 28 108 36z"/>
<glyph glyph-name="p" horiz-adv-x="650" unicode="p" d="M300 973l-8 4q-152 -12 -268 -140l8 -220q5 -19 5 -41q0 -11 -1 -23l4 -16l4 -180q4 -4 4 -16l-4 -100q-8 -28 -4 -60v-48l92 -60q44 -4 96 -32h12q28 -8 72 -8l28 -8l24 8q44 32 88 92l12 16q16 40 20 96l8 36q4 16 4 40v12q31 107 31 217q0 171 -75 351l-28 28l-24 20 l-20 16l-8 8q-24 9 -52 9q-10 0 -20 -1zM28 877q92 112 252 128q7 1 15 1q47 0 105 -21q12 -16 32 -32l28 -28l16 -20q81 -171 81 -378q0 -50 -5 -102q-12 -36 -20 -88l-4 -12v-32l-8 -20l-8 -56v-16q-8 -40 -28 -92q-20 -28 -56 -64q-20 -12 -40 -36q-20 -4 -48 -16l-44 12 q-76 0 -152 40q-52 8 -100 44q-5 -19 -5 -44q0 -13 1 -28q-4 -18 -4 -39t4 -45v-52l4 -12v-88q8 -24 4 -52l4 -16l-4 -100q-4 -4 -4 -16q5 -21 5 -46q0 -12 -1 -26q-3 -1 -6 -1q-17 0 -30 21q13 48 13 119q0 18 -1 37v24l-8 44v136l-4 8l4 8v24l-4 16q4 20 2 50q-1 10 -1 22 q0 24 3 56l-8 20l12 32q-4 16 -4 36t4 44v32l4 16l-4 12l4 32l4 12q-11 40 -11 89q0 24 3 51l-4 36l-12 272l4 20q-8 32 -8 80q4 18 4 39t-4 45l4 12q5 3 10 3q17 0 17 -47q0 -20 -3 -48z"/>
<glyph glyph-name="q" horiz-adv-x="790" unicode="q" d="M448 945q-48 48 -120 48q-12 -4 -32 -4l-88 -76l-16 -12l-8 -12l-52 -52q-8 -16 -28 -36q-12 -28 -20 -64l-8 -16l-4 -20l-4 -16q-4 -32 -16 -72l-12 -88l-8 -16v-164l4 -20l-4 -56l4 -36l12 -44l4 -32l24 -68q53 -53 123 -53q29 0 61 9q80 20 168 88q24 8 48 32l24 4 q-16 48 -16 120q-4 12 -4 32v140l12 88q4 4 4 16l-4 88l-4 28l4 52v28q2 18 2 41t-2 51v28l-4 44q-16 12 -40 20zM260 997l40 24q11 1 21 1q88 0 167 -61q0 44 31 44h5q-3 -14 -3 -29q0 -23 7 -47q-12 -20 -16 -44q7 -29 7 -62q0 -22 -3 -46v-68l-4 -16l8 -72l4 -24 l-12 -100v-16l-4 -16q4 -20 0 -44l4 -8l-4 -20v-80l4 -44v-32l12 -32q4 -28 0 -60l4 -12v-76q-8 -28 -8 -68v-84q-4 -28 4 -60q-1 -11 -1 -22q0 -22 5 -46l-4 -24l4 -16q-4 -20 0 -28l-8 -48q0 -24 4 -36v-24q16 -31 41 -31q20 0 47 19q40 24 92 32q20 12 36 12q20 12 44 16 q20 4 28 8l24 -8l-4 -24l-88 -28l-16 -4q-28 -12 -64 -16l-12 -4q-28 -24 -72 -36l-28 -12q-28 12 -52 32q-11 42 -11 91q0 39 7 81l4 8q-5 24 -5 57q0 16 1 35l-4 12v64l4 12l-4 108q8 24 4 56v44l-44 -12l-72 -64h-20q-97 -50 -168 -50q-151 0 -184 226q-2 20 -2 45t2 55 l-8 28v16l8 44q0 24 -4 36l8 80v12q8 20 8 48q8 28 12 64l20 64v12l8 32v12q16 24 28 56l28 36l60 60l32 24l8 4q16 20 44 44z"/>
<glyph glyph-name="r" horiz-adv-x="544" unicode="r" d="M-2 980q4 28 12 40q12 -4 20 -16l-8 -24l4 -124l4 -20v-28l4 -12l-4 -12l8 -8q99 233 238 233q73 0 158 -65q12 -32 12 -80q-12 -16 -28 -4q0 28 -12 64q-66 54 -126 54q-137 0 -246 -278v-84l4 -12v-64l-4 -16v-88l4 -16l-4 -16v-132l4 -28l4 -88l-4 -28v-88l8 -28 q-8 -16 -28 -16l-8 8q1 12 1 26q0 28 -5 62l4 44l4 12q-2 24 -2 44t2 36q-8 28 -8 68q0 44 4 76v20q-2 14 -2 32t2 40v64q4 28 4 68l-4 28v128q-4 4 0 16l-4 92l-4 16v60z"/>
<glyph glyph-name="s" horiz-adv-x="580" unicode="s" d="M0 775v7q0 198 224 229q136 0 192 -88l-12 -8l-20 4q-52 60 -144 60q-209 -14 -209 -185q0 -26 5 -55q28 -36 80 -68q28 -8 64 -28l56 -16q28 -16 68 -28l32 -20q28 -12 38 -22t30 -22l24 -24q44 -72 52 -168q4 -31 4 -60q0 -156 -124 -284q-36 -6 -71 -6q-120 0 -229 74 q-16 32 -28 84l-28 48v16l12 12l20 -12q12 -28 24 -76q4 -4 12 -28l16 -24l12 -16q99 -49 169 -49q94 0 135 89q52 88 52 183q0 87 -44 181q-112 112 -296 160l-80 52l-8 8q-20 32 -28 80z"/>
<glyph glyph-name="t" horiz-adv-x="660" unicode="t" d="M200 1423q4 8 16 16q8 -4 16 -16q-8 -40 -8 -100v-44l4 -36l-4 -8l4 -12v-24l-4 -32q4 -26 4 -45t-4 -31q4 -12 0 -32q4 -20 0 -28l4 -8v-28q20 3 44 3q48 0 112 -11l20 -4q28 8 60 4q20 4 48 0q12 4 24 0l20 4l16 -12l-16 -20h-80l-12 4q-12 -4 -32 -4q-26 -2 -47 -2 t-37 2l-40 12h-16q-28 0 -64 -12l12 -72v-28l4 -16v-60q4 -16 4 -40l-4 -28q2 -14 2 -38t-2 -58q5 -21 5 -50q0 -14 -1 -30l4 -12q-4 -20 0 -44l-4 -12v-132q4 -16 4 -40v-32l-4 -20v-92l4 -12q0 -56 36 -112h120q84 52 112 140q24 20 44 52q28 4 28 -24q-16 -12 -44 -60 l-8 -8l-16 -24l-12 -16l-16 -24l-28 -28l-12 -16l-32 -20q-21 -5 -46 -5q-12 0 -26 1l-12 -4q-12 4 -32 4h-40l-16 12q-20 44 -20 76l-8 20v12l-4 44q-4 20 0 48v60l4 8l-4 12v52q-2 14 -2 31t2 37v24l4 20l-4 28v20l4 20l-8 128l4 36v68l-4 32l4 12q0 60 -20 156 q-16 0 -38 -2t-46 -6l-24 4l-8 -4h-36l-20 -4l-28 16l4 24l28 4q35 -11 74 -11q45 0 94 15q0 40 4 100q-4 4 0 28q0 36 -4 60l4 44q-4 20 0 40l-8 4q4 32 4 80v76z"/>
<glyph glyph-name="u" horiz-adv-x="620" unicode="u" d="M416 1047l24 24q8 0 16 -12v-72l-4 -8v-28q-4 -16 -4 -40q0 -60 12 -96q-4 -20 0 -44v-12l4 -52q0 -28 -4 -40q0 -44 20 -104l4 -48l4 -16v-28l4 -20l4 -36l8 -44l4 -24l-8 -204q0 -60 28 -132l-8 -16h-24l-24 92l-4 28q4 12 0 32q-84 -88 -212 -128q-28 4 -64 16 q-188 139 -188 397q0 38 4 79q-7 24 -7 55q0 21 3 45v44q-2 14 -2 32t2 40q-4 16 -4 36t4 44v32l4 32q-1 9 -1 20q0 22 5 52v32l4 16l-4 20q4 4 8 32l24 8q0 -44 -12 -108v-32l-4 -12v-48q1 -11 1 -22q0 -22 -5 -46l4 -208q4 -20 4 -56l20 -244q4 -24 20 -52l8 -20 q68 -116 176 -152q124 40 224 156v140q-8 28 -12 68l-4 12v56l-4 20l-20 96v152l-4 16v32l-8 40l-4 12v44q0 24 4 56v48l-4 28z"/>
<glyph glyph-name="v" horiz-adv-x="667" unicode="v" d="M-4 987q0 16 8 40q3 1 5 1q15 0 19 -21q-4 -16 0 -40l20 -72l4 -20q8 -16 12 -32l8 -40l4 -20l12 -36v-12l16 -44q4 -28 20 -68l32 -84l4 -16l4 -16l28 -120q4 -24 16 -56v-12q4 -4 4 -16l16 -48v-12q12 -16 16 -40l12 -32l4 -20l12 -40l4 -28q16 -56 30 -18t18 94 q4 24 8 36l12 40l4 20l4 28l12 44l4 36l4 20q16 32 20 76l8 16l4 16q0 24 12 52l44 148q12 28 20 64q16 36 24 92q8 16 10 24t2 16l24 68l12 48l12 20q20 -7 20 -21q0 -11 -12 -27l-16 -60l-12 -28l-4 -28l-4 -12q-4 -4 -8 -14t-8 -34q-12 -28 -20 -72l-4 -8l-20 -64v-12 l-28 -76l-8 -16q0 -24 -12 -52l-12 -60l-12 -32q0 -20 -12 -44q-12 -40 -16 -100q-4 -4 -4 -16q-4 -28 -28 -112l-4 -24q0 -32 -16 -72l-4 -24q-4 -12 -20 -24q-36 16 -48 68q-8 24 -16 68l-4 16l-12 32v12l-8 12l-12 44l-4 16l-4 20q-4 4 -4 16l-16 52v20q-4 4 -8 16t-4 22 t-4 18q-8 24 -12 64q-24 80 -52 140l-20 76q-4 20 -16 52v12l-40 140l-12 52q-4 4 -8 28z"/>
<glyph glyph-name="w" horiz-adv-x="1083" unicode="w" d="M926 991l20 20h16l8 -20q-24 -28 -32 -72l-12 -28l-20 -48v-12l-12 -48l-4 -20l-32 -104q-8 -24 -16 -68l-56 -152l-4 -16l-20 -64q-12 -16 -16 -40l-12 -28l-52 -180l-8 -16v-12l-12 -28l-20 -36q-4 -12 -16 -24q-12 0 -24 8q-4 36 -24 92l-12 44q-4 28 -16 64 q-8 16 -12 44q-4 16 -8 24t-6 16t-2 16q-4 16 -16 36l-4 8q-4 24 -16 52l-4 28l-4 12l-16 84v12l-20 44v12q-12 28 -20 72l-4 16q0 -20 -8 -44v-32q-8 -20 -8 -28l-16 -44q0 -20 -6 -46t-22 -66l-48 -200q-4 -24 -4 -40q-12 -28 -20 -64q-4 -4 -4 -16l-24 -64l-12 -32 l-24 -4q-16 20 -28 52l-4 36q-8 16 -8 40q-12 28 -16 52q-4 20 -4 28l-12 40v16l-16 40q0 24 -12 56v16q-4 32 -20 68q-4 24 -4 36l-16 48l-4 28q-8 60 -20 100l-4 24l-4 28l-20 76l-8 12q0 20 -8 40l-4 24l-12 56l4 8q-9 23 -9 47q0 18 5 37l20 -16q-1 -10 -1 -21 q0 -34 9 -79l4 -8q4 -32 16 -72l4 -8l28 -112v-16q8 -24 12 -60q4 -24 8 -40l4 -16l4 -8l16 -72l4 -24l16 -64q12 -36 14 -62t18 -58l12 -40q4 -20 4 -32l8 -20v-24q20 -89 37 -89q10 0 19 33l8 24l12 60l8 16v12q12 28 20 68q4 36 12 60v16q12 28 16 64l4 16l28 80 q0 20 4 48q20 44 24 108l4 20l4 28l20 64l20 20q8 -4 16 -16q-6 -26 -6 -61v-19q2 -48 46 -188l4 -44l4 -8l8 -56l32 -84l12 -28q4 -28 20 -64l4 -16l4 -8q8 -24 8 -52l8 -20v-12l20 -52q0 -8 8 -20l48 120l8 32q0 16 12 40v12l20 52q0 12 12 32q12 24 16 40l72 216l4 8 l24 84l12 52q8 24 16 68l8 20q4 28 16 68q16 32 24 76z"/>
<glyph glyph-name="x" horiz-adv-x="790" unicode="x" d="M84 967q-8 24 12 44l12 -4q24 -76 92 -136l20 -32l28 -24l8 -12q20 -48 72 -116l12 -16l32 -48q20 24 28 56l12 28l24 52q12 24 24 68l12 32q12 20 12 28l44 64l12 20l16 20l8 16h16l8 -24l-20 -28q-36 -36 -64 -96l-4 -8l-44 -116l-8 -12l-8 -24q-12 -12 -20 -36 q-12 -20 -12 -28q-12 -20 -20 -48l40 -80q64 -68 108 -176l12 -24q48 -56 72 -140q28 -44 40 -80l8 -20q16 -24 32 -36q0 -16 -8 -36l-28 12q-20 32 -40 88l-44 104l-16 28q-36 48 -64 120l-16 24l-12 24l-40 64l-16 20l-8 8l-16 32q-8 8 -8 20l-12 12l-80 -124 q-4 -4 -8 -16l-28 -44l-20 -32l-56 -72l-16 -28l-12 -12l-28 -64l-12 -36l-8 -12l-32 -64l-8 -12q-15 -27 -35 -27q-13 0 -29 11q12 28 52 48q8 16 28 44q32 120 132 232q12 28 40 64l52 88l8 8l48 84q-12 16 -26 42t-42 54q-4 16 -20 32l-12 28l-8 12q-4 4 -8 16 q-24 44 -80 92q-16 24 -28 36l-32 36z"/>
<glyph glyph-name="y" horiz-adv-x="730" unicode="y" d="M600 1009l20 20q16 0 24 -16l-8 -24q0 -24 -12 -48l-4 -28l-12 -48l-4 -8v-20q-12 -36 -16 -88q-8 -28 -12 -64l-4 -8v-28l-8 -16q-4 -20 -4 -40l-8 -12v-12l-20 -68v-24q-8 -20 -12 -48q-8 -12 -12 -32l-4 -12q-4 -20 -16 -44l-12 -60q-20 -56 -24 -140l-4 -24 q-4 -4 -4 -16q-24 -32 -32 -84q-12 -32 -20 -76l-16 -44l-4 -24q-28 -56 -36 -96l-8 -4l-4 -24l-24 -72q-8 -12 -16 -32l-4 -12l-32 -52l-8 -8l-60 -28q-40 12 -100 20h-40l-12 4q-4 4 -16 4q-12 18 -12 40q0 13 4 28q20 -8 32 -40l68 -8l16 -4l32 -8h28q12 8 32 16 q24 28 44 72l8 8l32 88v12l12 28l4 16l12 28l4 16q12 24 20 56q12 28 12 40l8 16v12l8 12q-32 40 -40 100q-28 44 -48 116q-24 28 -28 72q-12 12 -20 32l-4 20l-4 16l-20 64q-12 16 -20 40l-8 8l-16 64q-16 28 -20 64l-4 12q-8 20 -24 40l-24 64l-4 8l-8 24l-12 64l-8 24v12 l-16 72l-4 12l-8 56q-4 8 0 16q16 0 28 -16q4 -60 28 -156q4 -24 8 -36t4 -28l12 -28l12 -32l4 -8l-4 -8l28 -44l4 -16l100 -268v-12l8 -24l8 -12v-12q36 -48 52 -120l12 -24q20 -32 32 -88q4 -8 16 -12q28 48 36 120q8 32 12 80l12 40v12l40 120q4 24 20 56q0 36 12 88l4 8 l16 60l4 8q0 36 16 84l4 24q-1 7 -1 15q0 37 17 77l-4 8l16 48l4 20q7 31 7 55q0 16 -3 29z"/>
<glyph glyph-name="z" horiz-adv-x="810" unicode="z" d="M622 1032l16 8q22 -5 48 -5q17 0 36 2q12 -10 12 -21q0 -7 -5 -15q-41 -15 -74 -54q-9 -24 -26 -47l-21 -47l-9 -8q-12 -16 -25 -47l-9 -8q-8 -20 -25 -35l-9 -24q-23 -19 -51 -52t-66 -88l-16 -19q-13 -12 -22 -35l-16 -24l-9 -8l-8 -19l-25 -31l-9 -20l-21 -23 l-68 -114l-8 -8l-38 -55q-13 -19 -22 -47l-42 -70q-17 -28 -31 -67l-8 -8q12 -1 26 -1q47 0 107 16l56 10l92 -11l28 -5h16l7 -5l28 3l12 -4l33 7q43 -6 71 -7l8 -4l16 4h9q33 0 72 13l12 -1q24 -9 35 -33l-13 -12q-17 5 -35 5q-20 0 -41 -6l-100 4q-20 3 -45 3 q-15 0 -31 -1l-163 14q-10 1 -20 1q-44 0 -93 -21l-100 -9q-25 -6 -38 -6h-3l-15 8v16q79 74 123 200l144 207l4 12l30 43l12 16l80 113q9 20 25 39l13 16q12 11 17 23l33 31l127 192l21 51q13 20 34 39l-16 8q-28 -11 -60 -6l-68 -1l-24 -3l-57 -6l-28 -3l-16 -4l-160 6 l-40 5l-24 -3l-24 5q-3 24 22 39q24 -9 52 -10q27 -5 43 -9q19 4 38 4q35 0 70 -12q20 3 52 2q28 7 73 10l8 3l32 3l24 -5l16 8z"/>
<glyph glyph-name="braceleft" horiz-adv-x="360" unicode="{" d="M76 1503q32 100 132 148q7 2 13 2q25 0 35 -26q-120 -32 -152 -160q1 -12 1 -26q0 -28 -5 -66q-2 -18 -2 -35t2 -33l-4 -24v-108q4 -20 0 -52l4 -44l4 -8l8 -64l4 -8l-4 -72l-4 -28v-16l-8 -28v-16l-20 -64q-12 -12 -20 -36q28 -36 36 -92q4 -28 -4 -60q4 -12 0 -32v-12 q-4 -20 -4 -48q-4 -16 -4 -40l-4 -16v-24l-8 -44l-4 -32l-4 -16q4 -24 0 -56l4 -20l-4 -8v-56l-4 -12l4 -12q-4 -24 -4 -52t4 -60v-12q32 -96 144 -120l8 -24q-12 -2 -24 -2q-77 0 -136 70q-16 28 -28 72l-4 12v120q0 24 4 56v108q12 44 12 72l4 16v40q12 44 12 104 q4 28 4 64v12q-4 56 -56 92l-4 16l4 16q44 28 60 84q0 24 12 56q4 28 4 62t-8 82l-4 8l-4 28l-4 28v16q4 16 4 34t-4 38q5 19 5 43q0 12 -1 25v52q0 28 4 72q4 32 4 80z"/>
<glyph glyph-name="bar" horiz-adv-x="168" unicode="|" d="M0 1606q12 20 44 28q16 -8 16 -32l-20 -24l4 -52l4 -12v-104l-4 -32q4 -20 0 -44v-184l-4 -12v-28l4 -24q0 -16 -4 -40l4 -28q-4 -28 -4 -56q2 -20 2 -45t-2 -55v-152l4 -28q-5 -19 -5 -44q0 -13 1 -28l-4 -28q4 -4 0 -16v-28l4 -24v-48l4 -8v-24q-4 -12 -4 -32 q5 -19 5 -44q0 -13 -1 -28v-12q5 -24 5 -60q0 -18 -1 -40l8 -436q-4 -24 4 -56l-4 -24q4 -36 -8 -52q-20 0 -20 20l-4 152q-4 4 0 16q-1 31 -1 60q0 58 5 108v44q-4 20 -4 48q-4 28 -4 44v72q1 16 1 35q0 37 -5 85q-2 32 -2 60t2 52v12l-4 44l-4 16l4 16l-4 12l4 28l4 32v96 q-4 16 -4 40l4 16l-4 60q4 28 4 72v188l4 16l-4 20v56l4 28v68q4 12 0 32v128l4 12v40l-4 44l-4 28l-4 16z"/>
<glyph glyph-name="braceright" horiz-adv-x="378" unicode="}" d="M176 47q-32 -100 -132 -148q-7 -2 -13 -2q-25 0 -35 26q120 32 152 160q-1 12 -1 26q0 28 5 66q2 18 2 35t-2 33l4 24v108q-4 20 0 52l-4 44l-4 8l-8 64l-4 8l4 72l4 28v16l8 28v16l20 64q12 12 20 36q-28 36 -36 92q-4 28 4 60q-4 12 0 32v12q4 20 4 48q4 16 4 40l4 16 v24l8 44l4 32l4 16q-4 24 0 56l-4 20l4 8v56l4 12l-4 12q4 24 4 52t-4 60v12q-32 96 -144 120l-8 24q12 2 24 2q77 0 136 -70q16 -28 28 -72l4 -12v-120q0 -24 -4 -56v-108q-12 -44 -12 -72l-4 -16v-40q-12 -44 -12 -104q-4 -28 -4 -64v-12q4 -56 56 -92l4 -16l-4 -16 q-44 -28 -60 -84q0 -24 -12 -56q-4 -28 -4 -62t8 -82l4 -8l4 -28l4 -28v-16q-4 -16 -4 -34t4 -38q-5 -19 -5 -43q0 -12 1 -25v-52q0 -28 -4 -72q-4 -32 -4 -80z"/>
<glyph glyph-name="asciitilde" horiz-adv-x="980" unicode="~" d="M40 888q80 108 228 136q112 -20 192 -120q28 -16 60 -48l60 -28l48 16l8 4q32 28 84 56l16 12l20 16l8 8l68 44l20 36l28 -4v-8q-4 -16 -20 -40l-80 -52q-20 -20 -52 -36l-12 -8l-12 -8q-24 -20 -68 -44l-32 -12q-28 -8 -44 -8q-88 44 -164 132l-72 44l-32 12l-16 8 q-128 -20 -220 -132q-20 -20 -48 -32q-8 12 -8 24z"/>
<glyph glyph-name="nonbreakingspace" horiz-adv-x="498" unicode=""/>
<glyph glyph-name="exclamdown" horiz-adv-x="309" unicode=""/>
<glyph glyph-name="cent" horiz-adv-x="636" unicode=""/>
<glyph glyph-name="sterling" horiz-adv-x="636" unicode=""/>
<glyph glyph-name="currency" horiz-adv-x="420" unicode=""/>
<glyph glyph-name="yen" horiz-adv-x="636" unicode=""/>
<glyph glyph-name="brokenbar" horiz-adv-x="201" unicode=""/>
<glyph glyph-name="section" horiz-adv-x="420" unicode=""/>
<glyph glyph-name="dieresis" horiz-adv-x="371" unicode=""/>
<glyph glyph-name="copyright" horiz-adv-x="714" unicode=""/>
<glyph glyph-name="ordfeminine" horiz-adv-x="402" unicode=""/>
<glyph glyph-name="guillemotleft" horiz-adv-x="540" unicode=""/>
<glyph glyph-name="logicalnot" horiz-adv-x="1395" unicode=""/>
<glyph glyph-name="registered" horiz-adv-x="747" unicode=""/>
<glyph glyph-name="macron" horiz-adv-x="360" unicode=""/>
<glyph glyph-name="macron" horiz-adv-x="360" unicode=""/>
<glyph glyph-name="degree" horiz-adv-x="285" unicode=""/>
<glyph glyph-name="plusminus" horiz-adv-x="636" unicode=""/>
<glyph glyph-name="twosuperior" horiz-adv-x="300" unicode=""/>
<glyph glyph-name="threesuperior" horiz-adv-x="300" unicode=""/>
<glyph glyph-name="acute" horiz-adv-x="462" unicode=""/>
<glyph glyph-name="paragraph" horiz-adv-x="450" unicode=""/>
<glyph glyph-name="cedilla" horiz-adv-x="321" unicode=""/>
<glyph glyph-name="onesuperior" horiz-adv-x="300" unicode=""/>
<glyph glyph-name="ordmasculine" horiz-adv-x="402" unicode=""/>
<glyph glyph-name="guillemotright" horiz-adv-x="540" unicode=""/>
<glyph glyph-name="onequarter" horiz-adv-x="786" unicode=""/>
<glyph glyph-name="onehalf" horiz-adv-x="786" unicode=""/>
<glyph glyph-name="threequarters" horiz-adv-x="786" unicode=""/>
<glyph glyph-name="questiondown" horiz-adv-x="567" unicode=""/>
<glyph glyph-name="Agrave" horiz-adv-x="609" unicode=""/>
<glyph glyph-name="Aacute" horiz-adv-x="609" unicode=""/>
<glyph glyph-name="Acircumflex" horiz-adv-x="609" unicode=""/>
<glyph glyph-name="Atilde" horiz-adv-x="609" unicode=""/>
<glyph glyph-name="Adieresis" horiz-adv-x="609" unicode=""/>
<glyph glyph-name="Aring" horiz-adv-x="609" unicode=""/>
<glyph glyph-name="AE" horiz-adv-x="819" unicode=""/>
<glyph glyph-name="Ccedilla" horiz-adv-x="729" unicode=""/>
<glyph glyph-name="Egrave" horiz-adv-x="648" unicode=""/>
<glyph glyph-name="Eacute" horiz-adv-x="648" unicode=""/>
<glyph glyph-name="Ecircumflex" horiz-adv-x="648" unicode=""/>
<glyph glyph-name="Edieresis" horiz-adv-x="648" unicode=""/>
<glyph glyph-name="Igrave" unicode=""/>
<glyph glyph-name="Iacute" unicode=""/>
<glyph glyph-name="Icircumflex" unicode=""/>
<glyph glyph-name="Idieresis" unicode=""/>
<glyph glyph-name="Eth" horiz-adv-x="663" unicode=""/>
<glyph glyph-name="Ntilde" horiz-adv-x="612" unicode=""/>
<glyph glyph-name="Ograve" horiz-adv-x="696" unicode=""/>
<glyph glyph-name="Oacute" horiz-adv-x="696" unicode=""/>
<glyph glyph-name="Ocircumflex" horiz-adv-x="696" unicode=""/>
<glyph glyph-name="Otilde" horiz-adv-x="696" unicode=""/>
<glyph glyph-name="Odieresis" horiz-adv-x="696" unicode=""/>
<glyph glyph-name="multiply" horiz-adv-x="636" unicode=""/>
<glyph glyph-name="Oslash" horiz-adv-x="696" unicode=""/>
<glyph glyph-name="Ugrave" horiz-adv-x="660" unicode=""/>
<glyph glyph-name="Uacute" horiz-adv-x="660" unicode=""/>
<glyph glyph-name="Ucircumflex" horiz-adv-x="660" unicode=""/>
<glyph glyph-name="Udieresis" horiz-adv-x="660" unicode=""/>
<glyph glyph-name="Yacute" horiz-adv-x="526" unicode=""/>
<glyph glyph-name="Thorn" horiz-adv-x="576" unicode=""/>
<glyph glyph-name="germandbls" horiz-adv-x="498" unicode=""/>
<glyph glyph-name="agrave" horiz-adv-x="369" unicode=""/>
<glyph glyph-name="aacute" horiz-adv-x="369" unicode=""/>
<glyph glyph-name="acircumflex" horiz-adv-x="369" unicode=""/>
<glyph glyph-name="atilde" horiz-adv-x="369" unicode=""/>
<glyph glyph-name="adieresis" horiz-adv-x="369" unicode=""/>
<glyph glyph-name="aring" horiz-adv-x="369" unicode=""/>
<glyph glyph-name="ae" horiz-adv-x="747" unicode=""/>
<glyph glyph-name="ccedilla" horiz-adv-x="510" unicode=""/>
<glyph glyph-name="egrave" horiz-adv-x="486" unicode=""/>
<glyph glyph-name="eacute" horiz-adv-x="486" unicode=""/>
<glyph glyph-name="ecircumflex" horiz-adv-x="486" unicode=""/>
<glyph glyph-name="edieresis" horiz-adv-x="486" unicode=""/>
<glyph glyph-name="igrave" unicode=""/>
<glyph glyph-name="iacute" unicode=""/>
<glyph glyph-name="icircumflex" unicode=""/>
<glyph glyph-name="idieresis" unicode=""/>
<glyph glyph-name="eth" horiz-adv-x="483" unicode=""/>
<glyph glyph-name="ntilde" horiz-adv-x="384" unicode=""/>
<glyph glyph-name="ograve" horiz-adv-x="366" unicode=""/>
<glyph glyph-name="oacute" horiz-adv-x="366" unicode=""/>
<glyph glyph-name="ocircumflex" horiz-adv-x="366" unicode=""/>
<glyph glyph-name="otilde" horiz-adv-x="366" unicode=""/>
<glyph glyph-name="odieresis" horiz-adv-x="366" unicode=""/>
<glyph glyph-name="divide" horiz-adv-x="636" unicode=""/>
<glyph glyph-name="oslash" horiz-adv-x="366" unicode=""/>
<glyph glyph-name="ugrave" horiz-adv-x="342" unicode=""/>
<glyph glyph-name="uacute" horiz-adv-x="342" unicode=""/>
<glyph glyph-name="ucircumflex" horiz-adv-x="342" unicode=""/>
<glyph glyph-name="udieresis" horiz-adv-x="342" unicode=""/>
<glyph glyph-name="yacute" horiz-adv-x="393" unicode=""/>
<glyph glyph-name="thorn" horiz-adv-x="348" unicode=""/>
<glyph glyph-name="ydieresis" horiz-adv-x="393" unicode=""/>
<glyph glyph-name="dotlessi" unicode=""/>
<glyph glyph-name="Lslash" horiz-adv-x="570" unicode=""/>
<glyph glyph-name="lslash" horiz-adv-x="213" unicode=""/>
<glyph glyph-name="OE" horiz-adv-x="954" unicode=""/>
<glyph glyph-name="oe" horiz-adv-x="756" unicode=""/>
<glyph glyph-name="Scaron" horiz-adv-x="621" unicode=""/>
<glyph glyph-name="scaron" horiz-adv-x="342" unicode=""/>
<glyph glyph-name="Ydieresis" horiz-adv-x="526" unicode=""/>
<glyph glyph-name="Zcaron" horiz-adv-x="690" unicode=""/>
<glyph glyph-name="zcaron" horiz-adv-x="462" unicode=""/>
<glyph glyph-name="florin" horiz-adv-x="576" unicode=""/>
<glyph glyph-name="circumflex" horiz-adv-x="360" unicode=""/>
<glyph glyph-name="caron" horiz-adv-x="360" unicode=""/>
<glyph glyph-name="breve" horiz-adv-x="360" unicode=""/>
<glyph glyph-name="dotaccent" horiz-adv-x="183" unicode=""/>
<glyph glyph-name="ring" horiz-adv-x="360" unicode=""/>
<glyph glyph-name="ogonek" horiz-adv-x="270" unicode=""/>
<glyph glyph-name="tilde" horiz-adv-x="483" unicode=""/>
<glyph glyph-name="hungarumlaut" horiz-adv-x="468" unicode=""/>
<glyph glyph-name="endash" horiz-adv-x="684" unicode=""/>
<glyph glyph-name="emdash" horiz-adv-x="894" unicode=""/>
<glyph glyph-name="quoteleft" horiz-adv-x="237" unicode=""/>
<glyph glyph-name="quoteright" horiz-adv-x="240" unicode=""/>
<glyph glyph-name="quotesinglbase" unicode=""/>
<glyph glyph-name="quotedblleft" horiz-adv-x="342" unicode=""/>
<glyph glyph-name="quotedblright" horiz-adv-x="300" unicode=""/>
<glyph glyph-name="quotedblbase" horiz-adv-x="402" unicode=""/>
<glyph glyph-name="bullet" horiz-adv-x="387" unicode=""/>
<glyph glyph-name="guilsinglleft" horiz-adv-x="321" unicode=""/>
<glyph glyph-name="guilsinglright" horiz-adv-x="321" unicode=""/>
<glyph glyph-name="fraction" unicode=""/>
<glyph glyph-name="apple" horiz-adv-x="588" unicode=""/>
</font>
</defs>
</svg>
